<svg xmlns="http://www.w3.org/2000/svg" viewBox="0 0 760 560" width="760" height="560" aria-hidden="true"><defs>
<radialGradient id="bg" cx="50%" cy="32%" r="80%"><stop offset="0" stop-color="#0e201c"/><stop offset="52%" stop-color="#071110"/><stop offset="1" stop-color="#03080a"/></radialGradient>
<radialGradient id="halo" cx="50%" cy="50%" r="50%"><stop offset="0" stop-color="#7CFFC4" stop-opacity=".38"/><stop offset="55%" stop-color="#7CFFC4" stop-opacity=".09"/><stop offset="1" stop-color="#7CFFC4" stop-opacity="0"/></radialGradient>
<linearGradient id="lf1" x1="0" y1="1" x2=".35" y2="0"><stop offset="0" stop-color="#0f4436"/><stop offset="1" stop-color="#3fbe86"/></linearGradient>
<linearGradient id="lf2" x1="0" y1="1" x2=".65" y2="0"><stop offset="0" stop-color="#0f4436"/><stop offset="1" stop-color="#2ad6a5"/></linearGradient>
<linearGradient id="stem" x1="0" y1="1" x2="0" y2="0"><stop offset="0" stop-color="#1b3a30"/><stop offset="1" stop-color="#3fbe86" stop-opacity=".9"/></linearGradient>
<linearGradient id="trunk" x1="0" y1="1" x2="1" y2="0"><stop offset="0" stop-color="#16302a"/><stop offset="1" stop-color="#3fbe86" stop-opacity=".7"/></linearGradient>
<linearGradient id="cane" x1="0" y1="0" x2="1" y2="0"><stop offset="0" stop-color="#16342c"/><stop offset=".45" stop-color="#3fbe86"/><stop offset="1" stop-color="#0f2620"/></linearGradient>
<radialGradient id="core" cx="50%" cy="50%" r="50%"><stop offset="0" stop-color="#7CFFC4"/><stop offset="1" stop-color="#7CFFC4" stop-opacity="0"/></radialGradient>
<linearGradient id="potg" x1="0" y1="0" x2="1" y2="1"><stop offset="0" stop-color="#182422"/><stop offset="1" stop-color="#090f0f"/></linearGradient>
<linearGradient id="floor" x1="0" y1="0" x2="1" y2="0"><stop offset="0" stop-color="#7CFFC4" stop-opacity="0"/><stop offset=".5" stop-color="#7CFFC4" stop-opacity=".55"/><stop offset="1" stop-color="#7CFFC4" stop-opacity="0"/></linearGradient>
</defs><rect width="760" height="560" fill="url(#bg)"/><g opacity=".13" stroke="#7CFFC4" stroke-width=".7"><path d="M0,0 H760"/><path d="M0,44 H760"/><path d="M0,88 H760"/><path d="M0,132 H760"/><path d="M0,176 H760"/><path d="M0,220 H760"/><path d="M0,264 H760"/><path d="M0,308 H760"/><path d="M0,352 H760"/><path d="M0,396 H760"/><path d="M0,440 H760"/><path d="M0,484 H760"/><path d="M0,528 H760"/><path d="M0,0 V560"/><path d="M44,0 V560"/><path d="M88,0 V560"/><path d="M132,0 V560"/><path d="M176,0 V560"/><path d="M220,0 V560"/><path d="M264,0 V560"/><path d="M308,0 V560"/><path d="M352,0 V560"/><path d="M396,0 V560"/><path d="M440,0 V560"/><path d="M484,0 V560"/><path d="M528,0 V560"/><path d="M572,0 V560"/><path d="M616,0 V560"/><path d="M660,0 V560"/><path d="M704,0 V560"/><path d="M748,0 V560"/></g><ellipse cx="319" cy="246" rx="380" ry="342" fill="url(#halo)"/><ellipse cx="380" cy="496" rx="274" ry="17" fill="url(#halo)"/><rect x="61" y="496" width="638" height="2" fill="url(#floor)"/><circle cx="96" cy="120" r="30" fill="url(#core)" opacity="0.32"/><circle cx="664" cy="150" r="22" fill="url(#core)" opacity="0.28"/><g transform="translate(25,8) scale(0.860)"><path d="M244,434 L396,434 L369,556 Q320,566 271,556 Z" fill="url(#potg)"/><path d="M244,434 L251,434 L278,554 L271,554 Z" fill="#eafff2" opacity=".08"/><path d="M396,434 L392,434 L365,554 L369,554 Z" fill="#7CFFC4" opacity=".10"/><rect x="244" y="475" width="152" height="2" fill="#7CFFC4" opacity=".22"/><ellipse cx="320" cy="434" rx="76" ry="17" fill="#08110e"/><ellipse cx="320" cy="434" rx="76" ry="17" fill="none" stroke="#7CFFC4" stroke-width="2" opacity=".6"/><ellipse cx="320" cy="437" rx="66" ry="13" fill="#0c1814"/><path d="M320,438 Q272,412 221,392" fill="none" stroke="url(#stem)" stroke-width="7" stroke-linecap="round"/><mask id="m21"><rect x="0" y="0" width="900" height="1100" fill="#fff"/><ellipse cx="162" cy="392" rx="20" ry="6" fill="#000" transform="rotate(-124 162 392)"/><ellipse cx="192" cy="344" rx="20" ry="6" fill="#000" transform="rotate(8 192 344)"/><ellipse cx="132" cy="380" rx="21" ry="6" fill="#000" transform="rotate(-124 132 380)"/><ellipse cx="162" cy="331" rx="21" ry="6" fill="#000" transform="rotate(8 162 331)"/><ellipse cx="101" cy="369" rx="18" ry="6" fill="#000" transform="rotate(-124 101 369)"/><ellipse cx="131" cy="321" rx="18" ry="6" fill="#000" transform="rotate(8 131 321)"/><path d="M179,390 L127,464 L135,469Z" fill="#000"/><path d="M199,358 L243,279 L251,284Z" fill="#000"/><path d="M147,375 L94,449 L103,455Z" fill="#000"/><path d="M166,344 L210,264 L219,269Z" fill="#000"/><path d="M113,363 L61,437 L69,442Z" fill="#000"/><path d="M132,331 L176,252 L185,257Z" fill="#000"/></mask><g mask="url(#m21)"><path d="M221,392 C160,458 65,396 79,303 C155,250 254,309 221,392Z" fill="url(#lf1)"/><path d="M221,392 Q150,357 71,334" fill="none" stroke="#08120e" stroke-width="1.8" opacity=".42" stroke-linecap="round"/><path d="M195,377 L130,410" stroke="#08120e" stroke-width="1.4" opacity="0.32" fill="none" stroke-linecap="round"/><path d="M195,377 L196,304" stroke="#08120e" stroke-width="1.4" opacity="0.32" fill="none" stroke-linecap="round"/><path d="M169,365 L93,403" stroke="#08120e" stroke-width="1.4" opacity="0.32" fill="none" stroke-linecap="round"/><path d="M169,365 L171,280" stroke="#08120e" stroke-width="1.4" opacity="0.32" fill="none" stroke-linecap="round"/><path d="M142,354 L69,392" stroke="#08120e" stroke-width="1.4" opacity="0.32" fill="none" stroke-linecap="round"/><path d="M142,354 L144,271" stroke="#08120e" stroke-width="1.4" opacity="0.32" fill="none" stroke-linecap="round"/><path d="M114,345 L51,377" stroke="#08120e" stroke-width="1.4" opacity="0.32" fill="none" stroke-linecap="round"/><path d="M114,345 L116,274" stroke="#08120e" stroke-width="1.4" opacity="0.32" fill="none" stroke-linecap="round"/><path d="M85,337 L33,364" stroke="#08120e" stroke-width="1.4" opacity="0.32" fill="none" stroke-linecap="round"/><path d="M85,337 L87,279" stroke="#08120e" stroke-width="1.4" opacity="0.32" fill="none" stroke-linecap="round"/></g><path d="M320,438 Q368,412 419,392" fill="none" stroke="url(#stem)" stroke-width="7" stroke-linecap="round"/><mask id="m22"><rect x="0" y="0" width="900" height="1100" fill="#fff"/><ellipse cx="447" cy="345" rx="20" ry="6" fill="#000" transform="rotate(-8 447 345)"/><ellipse cx="477" cy="393" rx="20" ry="6" fill="#000" transform="rotate(124 477 393)"/><ellipse cx="476" cy="332" rx="21" ry="6" fill="#000" transform="rotate(-8 476 332)"/><ellipse cx="506" cy="381" rx="21" ry="6" fill="#000" transform="rotate(124 506 381)"/><ellipse cx="507" cy="322" rx="18" ry="6" fill="#000" transform="rotate(-8 507 322)"/><ellipse cx="537" cy="371" rx="18" ry="6" fill="#000" transform="rotate(124 537 371)"/><path d="M440,359 L397,279 L388,285Z" fill="#000"/><path d="M460,390 L512,465 L504,470Z" fill="#000"/><path d="M472,345 L428,265 L420,270Z" fill="#000"/><path d="M492,376 L544,450 L536,455Z" fill="#000"/><path d="M505,333 L461,253 L453,258Z" fill="#000"/><path d="M525,364 L577,438 L569,444Z" fill="#000"/></mask><g mask="url(#m22)"><path d="M419,392 C386,309 482,252 558,305 C573,397 479,458 419,392Z" fill="url(#lf1)"/><path d="M419,392 Q488,358 565,336" fill="none" stroke="#08120e" stroke-width="1.8" opacity=".42" stroke-linecap="round"/><path d="M444,378 L443,305" stroke="#08120e" stroke-width="1.4" opacity="0.32" fill="none" stroke-linecap="round"/><path d="M444,378 L509,411" stroke="#08120e" stroke-width="1.4" opacity="0.32" fill="none" stroke-linecap="round"/><path d="M470,365 L468,280" stroke="#08120e" stroke-width="1.4" opacity="0.32" fill="none" stroke-linecap="round"/><path d="M470,365 L545,404" stroke="#08120e" stroke-width="1.4" opacity="0.32" fill="none" stroke-linecap="round"/><path d="M496,355 L494,272" stroke="#08120e" stroke-width="1.4" opacity="0.32" fill="none" stroke-linecap="round"/><path d="M496,355 L570,393" stroke="#08120e" stroke-width="1.4" opacity="0.32" fill="none" stroke-linecap="round"/><path d="M523,346 L522,275" stroke="#08120e" stroke-width="1.4" opacity="0.32" fill="none" stroke-linecap="round"/><path d="M523,346 L586,378" stroke="#08120e" stroke-width="1.4" opacity="0.32" fill="none" stroke-linecap="round"/><path d="M552,339 L551,281" stroke="#08120e" stroke-width="1.4" opacity="0.32" fill="none" stroke-linecap="round"/><path d="M552,339 L604,365" stroke="#08120e" stroke-width="1.4" opacity="0.32" fill="none" stroke-linecap="round"/></g><path d="M320,438 Q288,362 253,286" fill="none" stroke="url(#stem)" stroke-width="7" stroke-linecap="round"/><mask id="m23"><rect x="0" y="0" width="900" height="1100" fill="#fff"/><ellipse cx="204" cy="246" rx="20" ry="6" fill="#000" transform="rotate(-88 204 246)"/><ellipse cx="257" cy="224" rx="20" ry="6" fill="#000" transform="rotate(44 257 224)"/><ellipse cx="189" cy="214" rx="21" ry="6" fill="#000" transform="rotate(-88 189 214)"/><ellipse cx="242" cy="192" rx="21" ry="6" fill="#000" transform="rotate(44 242 192)"/><ellipse cx="173" cy="182" rx="18" ry="6" fill="#000" transform="rotate(-88 173 182)"/><ellipse cx="226" cy="161" rx="18" ry="6" fill="#000" transform="rotate(44 226 161)"/><path d="M220,255 L133,284 L138,295Z" fill="#000"/><path d="M254,242 L336,202 L340,213Z" fill="#000"/><path d="M203,220 L117,249 L121,259Z" fill="#000"/><path d="M237,206 L319,167 L324,177Z" fill="#000"/><path d="M186,185 L99,214 L104,224Z" fill="#000"/><path d="M220,171 L302,132 L306,142Z" fill="#000"/></mask><g mask="url(#m23)"><path d="M253,286 C164,302 119,184 183,114 C278,120 327,236 253,286Z" fill="url(#lf1)"/><path d="M253,286 Q217,206 176,129" fill="none" stroke="#08120e" stroke-width="2.0" opacity=".42" stroke-linecap="round"/><path d="M240,255 L168,244" stroke="#08120e" stroke-width="1.4" opacity="0.32" fill="none" stroke-linecap="round"/><path d="M240,255 L284,197" stroke="#08120e" stroke-width="1.4" opacity="0.32" fill="none" stroke-linecap="round"/><path d="M227,226 L143,213" stroke="#08120e" stroke-width="1.4" opacity="0.32" fill="none" stroke-linecap="round"/><path d="M227,226 L278,159" stroke="#08120e" stroke-width="1.4" opacity="0.32" fill="none" stroke-linecap="round"/><path d="M213,198 L131,185" stroke="#08120e" stroke-width="1.4" opacity="0.32" fill="none" stroke-linecap="round"/><path d="M213,198 L263,132" stroke="#08120e" stroke-width="1.4" opacity="0.32" fill="none" stroke-linecap="round"/><path d="M198,170 L129,159" stroke="#08120e" stroke-width="1.4" opacity="0.32" fill="none" stroke-linecap="round"/><path d="M198,170 L241,113" stroke="#08120e" stroke-width="1.4" opacity="0.32" fill="none" stroke-linecap="round"/><path d="M183,142 L125,133" stroke="#08120e" stroke-width="1.4" opacity="0.32" fill="none" stroke-linecap="round"/><path d="M183,142 L218,95" stroke="#08120e" stroke-width="1.4" opacity="0.32" fill="none" stroke-linecap="round"/></g><path d="M320,438 Q354,366 390,296" fill="none" stroke="url(#stem)" stroke-width="7" stroke-linecap="round"/><mask id="m24"><rect x="0" y="0" width="900" height="1100" fill="#fff"/><ellipse cx="387" cy="236" rx="20" ry="6" fill="#000" transform="rotate(-42 387 236)"/><ellipse cx="439" cy="259" rx="20" ry="6" fill="#000" transform="rotate(90 439 259)"/><ellipse cx="403" cy="206" rx="21" ry="6" fill="#000" transform="rotate(-42 403 206)"/><ellipse cx="456" cy="229" rx="21" ry="6" fill="#000" transform="rotate(90 456 229)"/><ellipse cx="421" cy="176" rx="18" ry="6" fill="#000" transform="rotate(-42 421 176)"/><ellipse cx="473" cy="199" rx="18" ry="6" fill="#000" transform="rotate(90 473 199)"/><path d="M390,253 L309,211 L305,221Z" fill="#000"/><path d="M424,268 L509,300 L504,310Z" fill="#000"/><path d="M407,219 L327,177 L322,187Z" fill="#000"/><path d="M441,234 L526,266 L522,276Z" fill="#000"/><path d="M426,186 L345,144 L341,154Z" fill="#000"/><path d="M460,201 L545,233 L541,243Z" fill="#000"/></mask><g mask="url(#m24)"><path d="M390,296 C317,244 369,133 463,132 C525,203 478,316 390,296Z" fill="url(#lf1)"/><path d="M390,296 Q428,220 472,147" fill="none" stroke="#08120e" stroke-width="2.0" opacity=".42" stroke-linecap="round"/><path d="M404,267 L362,207" stroke="#08120e" stroke-width="1.4" opacity="0.32" fill="none" stroke-linecap="round"/><path d="M404,267 L476,258" stroke="#08120e" stroke-width="1.4" opacity="0.32" fill="none" stroke-linecap="round"/><path d="M418,240 L369,170" stroke="#08120e" stroke-width="1.4" opacity="0.32" fill="none" stroke-linecap="round"/><path d="M418,240 L502,229" stroke="#08120e" stroke-width="1.4" opacity="0.32" fill="none" stroke-linecap="round"/><path d="M432,213 L384,145" stroke="#08120e" stroke-width="1.4" opacity="0.32" fill="none" stroke-linecap="round"/><path d="M432,213 L514,203" stroke="#08120e" stroke-width="1.4" opacity="0.32" fill="none" stroke-linecap="round"/><path d="M448,186 L407,128" stroke="#08120e" stroke-width="1.4" opacity="0.32" fill="none" stroke-linecap="round"/><path d="M448,186 L518,177" stroke="#08120e" stroke-width="1.4" opacity="0.32" fill="none" stroke-linecap="round"/><path d="M464,160 L430,112" stroke="#08120e" stroke-width="1.4" opacity="0.32" fill="none" stroke-linecap="round"/><path d="M464,160 L522,153" stroke="#08120e" stroke-width="1.4" opacity="0.32" fill="none" stroke-linecap="round"/></g><path d="M320,438 Q320,384 320,330" fill="none" stroke="url(#stem)" stroke-width="7" stroke-linecap="round"/><mask id="m25"><rect x="0" y="0" width="900" height="1100" fill="#fff"/><ellipse cx="291" cy="287" rx="20" ry="6" fill="#000" transform="rotate(-66 291 287)"/><ellipse cx="349" cy="287" rx="20" ry="6" fill="#000" transform="rotate(66 349 287)"/><ellipse cx="291" cy="260" rx="21" ry="6" fill="#000" transform="rotate(-66 291 260)"/><ellipse cx="349" cy="260" rx="21" ry="6" fill="#000" transform="rotate(66 349 260)"/><ellipse cx="291" cy="233" rx="18" ry="6" fill="#000" transform="rotate(-66 291 233)"/><ellipse cx="349" cy="233" rx="18" ry="6" fill="#000" transform="rotate(66 349 233)"/><path d="M302,299 L211,294 L211,303Z" fill="#000"/><path d="M338,299 L429,294 L429,303Z" fill="#000"/><path d="M302,269 L211,265 L211,273Z" fill="#000"/><path d="M338,269 L429,265 L429,273Z" fill="#000"/><path d="M302,239 L211,235 L211,243Z" fill="#000"/><path d="M338,239 L429,235 L429,243Z" fill="#000"/></mask><g mask="url(#m25)"><path d="M320,330 C232,316 234,219 320,188 C406,219 408,316 320,330Z" fill="url(#lf1)"/><path d="M320,330 Q320,263 320,197" fill="none" stroke="#08120e" stroke-width="1.6" opacity=".42" stroke-linecap="round"/><path d="M320,304 L258,267" stroke="#08120e" stroke-width="1.4" opacity="0.32" fill="none" stroke-linecap="round"/><path d="M320,304 L382,267" stroke="#08120e" stroke-width="1.4" opacity="0.32" fill="none" stroke-linecap="round"/><path d="M320,280 L247,237" stroke="#08120e" stroke-width="1.4" opacity="0.32" fill="none" stroke-linecap="round"/><path d="M320,280 L393,237" stroke="#08120e" stroke-width="1.4" opacity="0.32" fill="none" stroke-linecap="round"/><path d="M320,256 L249,214" stroke="#08120e" stroke-width="1.4" opacity="0.32" fill="none" stroke-linecap="round"/><path d="M320,256 L391,214" stroke="#08120e" stroke-width="1.4" opacity="0.32" fill="none" stroke-linecap="round"/><path d="M320,232 L259,196" stroke="#08120e" stroke-width="1.4" opacity="0.32" fill="none" stroke-linecap="round"/><path d="M320,232 L381,196" stroke="#08120e" stroke-width="1.4" opacity="0.32" fill="none" stroke-linecap="round"/><path d="M320,208 L270,178" stroke="#08120e" stroke-width="1.4" opacity="0.32" fill="none" stroke-linecap="round"/><path d="M320,208 L370,178" stroke="#08120e" stroke-width="1.4" opacity="0.32" fill="none" stroke-linecap="round"/></g></g><g transform="translate(364,136) scale(0.600)" opacity="0.7"><path d="M246,438 L394,438 L367,556 Q320,566 273,556 Z" fill="url(#potg)"/><path d="M246,438 L253,438 L280,554 L273,554 Z" fill="#eafff2" opacity=".08"/><path d="M394,438 L390,438 L363,554 L367,554 Z" fill="#7CFFC4" opacity=".10"/><rect x="246" y="478" width="148" height="2" fill="#7CFFC4" opacity=".22"/><ellipse cx="320" cy="438" rx="74" ry="17" fill="#08110e"/><ellipse cx="320" cy="438" rx="74" ry="17" fill="none" stroke="#7CFFC4" stroke-width="2" opacity=".6"/><ellipse cx="320" cy="441" rx="64" ry="13" fill="#0c1814"/><path d="M320,438 C314,287 331,196 334,102" fill="none" stroke="url(#stem)" stroke-width="9" stroke-linecap="round"/><path d="M320,391 Q301,386 283,382" fill="none" stroke="url(#stem)" stroke-width="4" stroke-linecap="round"/><g><path d="M283,382 C230,435 146,405 112,339 C173,297 261,310 283,382Z" fill="url(#lf2)"/><path d="M283,382 Q201,365 118,357" fill="none" stroke="#08120e" stroke-width="1.9" opacity=".42" stroke-linecap="round"/><path d="M252,374 L209,417" stroke="#08120e" stroke-width="1.4" opacity="0.32" fill="none" stroke-linecap="round"/><path d="M252,374 L234,316" stroke="#08120e" stroke-width="1.4" opacity="0.32" fill="none" stroke-linecap="round"/><path d="M228,370 L180,419" stroke="#08120e" stroke-width="1.4" opacity="0.32" fill="none" stroke-linecap="round"/><path d="M228,370 L208,304" stroke="#08120e" stroke-width="1.4" opacity="0.32" fill="none" stroke-linecap="round"/><path d="M205,366 L153,418" stroke="#08120e" stroke-width="1.4" opacity="0.32" fill="none" stroke-linecap="round"/><path d="M205,366 L183,296" stroke="#08120e" stroke-width="1.4" opacity="0.32" fill="none" stroke-linecap="round"/><path d="M181,363 L135,409" stroke="#08120e" stroke-width="1.4" opacity="0.32" fill="none" stroke-linecap="round"/><path d="M181,363 L162,300" stroke="#08120e" stroke-width="1.4" opacity="0.32" fill="none" stroke-linecap="round"/><path d="M157,360 L117,400" stroke="#08120e" stroke-width="1.4" opacity="0.32" fill="none" stroke-linecap="round"/><path d="M157,360 L140,306" stroke="#08120e" stroke-width="1.4" opacity="0.32" fill="none" stroke-linecap="round"/><path d="M133,358 L98,392" stroke="#08120e" stroke-width="1.4" opacity="0.32" fill="none" stroke-linecap="round"/><path d="M133,358 L119,311" stroke="#08120e" stroke-width="1.4" opacity="0.32" fill="none" stroke-linecap="round"/></g><path d="M322,324 Q341,320 361,315" fill="none" stroke="url(#stem)" stroke-width="4" stroke-linecap="round"/><g><path d="M361,315 C387,240 478,230 541,277 C503,346 415,374 361,315Z" fill="url(#lf1)"/><path d="M361,315 Q447,301 534,295" fill="none" stroke="#08120e" stroke-width="2.0" opacity=".42" stroke-linecap="round"/><path d="M394,309 L414,248" stroke="#08120e" stroke-width="1.4" opacity="0.32" fill="none" stroke-linecap="round"/><path d="M394,309 L437,356" stroke="#08120e" stroke-width="1.4" opacity="0.32" fill="none" stroke-linecap="round"/><path d="M418,305 L442,236" stroke="#08120e" stroke-width="1.4" opacity="0.32" fill="none" stroke-linecap="round"/><path d="M418,305 L468,358" stroke="#08120e" stroke-width="1.4" opacity="0.32" fill="none" stroke-linecap="round"/><path d="M443,302 L468,229" stroke="#08120e" stroke-width="1.4" opacity="0.32" fill="none" stroke-linecap="round"/><path d="M443,302 L496,358" stroke="#08120e" stroke-width="1.4" opacity="0.32" fill="none" stroke-linecap="round"/><path d="M468,299 L491,234" stroke="#08120e" stroke-width="1.4" opacity="0.32" fill="none" stroke-linecap="round"/><path d="M468,299 L515,349" stroke="#08120e" stroke-width="1.4" opacity="0.32" fill="none" stroke-linecap="round"/><path d="M493,297 L513,240" stroke="#08120e" stroke-width="1.4" opacity="0.32" fill="none" stroke-linecap="round"/><path d="M493,297 L534,341" stroke="#08120e" stroke-width="1.4" opacity="0.32" fill="none" stroke-linecap="round"/><path d="M519,295 L535,247" stroke="#08120e" stroke-width="1.4" opacity="0.32" fill="none" stroke-linecap="round"/><path d="M519,295 L554,333" stroke="#08120e" stroke-width="1.4" opacity="0.32" fill="none" stroke-linecap="round"/></g><path d="M324,257 Q306,250 288,243" fill="none" stroke="url(#stem)" stroke-width="4" stroke-linecap="round"/><g><path d="M288,243 C231,289 152,252 125,184 C189,150 274,172 288,243Z" fill="url(#lf2)"/><path d="M288,243 Q210,219 129,202" fill="none" stroke="#08120e" stroke-width="1.9" opacity=".42" stroke-linecap="round"/><path d="M258,233 L213,270" stroke="#08120e" stroke-width="1.4" opacity="0.32" fill="none" stroke-linecap="round"/><path d="M258,233 L247,175" stroke="#08120e" stroke-width="1.4" opacity="0.32" fill="none" stroke-linecap="round"/><path d="M236,226 L184,269" stroke="#08120e" stroke-width="1.4" opacity="0.32" fill="none" stroke-linecap="round"/><path d="M236,226 L223,161" stroke="#08120e" stroke-width="1.4" opacity="0.32" fill="none" stroke-linecap="round"/><path d="M213,220 L158,265" stroke="#08120e" stroke-width="1.4" opacity="0.32" fill="none" stroke-linecap="round"/><path d="M213,220 L200,150" stroke="#08120e" stroke-width="1.4" opacity="0.32" fill="none" stroke-linecap="round"/><path d="M190,214 L141,254" stroke="#08120e" stroke-width="1.4" opacity="0.32" fill="none" stroke-linecap="round"/><path d="M190,214 L178,152" stroke="#08120e" stroke-width="1.4" opacity="0.32" fill="none" stroke-linecap="round"/><path d="M167,209 L124,244" stroke="#08120e" stroke-width="1.4" opacity="0.32" fill="none" stroke-linecap="round"/><path d="M167,209 L156,155" stroke="#08120e" stroke-width="1.4" opacity="0.32" fill="none" stroke-linecap="round"/><path d="M143,205 L106,235" stroke="#08120e" stroke-width="1.4" opacity="0.32" fill="none" stroke-linecap="round"/><path d="M143,205 L134,158" stroke="#08120e" stroke-width="1.4" opacity="0.32" fill="none" stroke-linecap="round"/></g><path d="M327,196 Q344,191 361,186" fill="none" stroke="url(#stem)" stroke-width="4" stroke-linecap="round"/><g><path d="M361,186 C379,122 458,107 515,142 C486,202 411,232 361,186Z" fill="url(#lf1)"/><path d="M361,186 Q434,169 510,160" fill="none" stroke="#08120e" stroke-width="1.8" opacity=".42" stroke-linecap="round"/><path d="M389,179 L403,127" stroke="#08120e" stroke-width="1.4" opacity="0.32" fill="none" stroke-linecap="round"/><path d="M389,179 L428,216" stroke="#08120e" stroke-width="1.4" opacity="0.32" fill="none" stroke-linecap="round"/><path d="M410,174 L426,115" stroke="#08120e" stroke-width="1.4" opacity="0.32" fill="none" stroke-linecap="round"/><path d="M410,174 L455,216" stroke="#08120e" stroke-width="1.4" opacity="0.32" fill="none" stroke-linecap="round"/><path d="M432,170 L448,107" stroke="#08120e" stroke-width="1.4" opacity="0.32" fill="none" stroke-linecap="round"/><path d="M432,170 L479,214" stroke="#08120e" stroke-width="1.4" opacity="0.32" fill="none" stroke-linecap="round"/><path d="M453,166 L468,111" stroke="#08120e" stroke-width="1.4" opacity="0.32" fill="none" stroke-linecap="round"/><path d="M453,166 L495,206" stroke="#08120e" stroke-width="1.4" opacity="0.32" fill="none" stroke-linecap="round"/><path d="M475,164 L488,115" stroke="#08120e" stroke-width="1.4" opacity="0.32" fill="none" stroke-linecap="round"/><path d="M475,164 L512,198" stroke="#08120e" stroke-width="1.4" opacity="0.32" fill="none" stroke-linecap="round"/><path d="M497,161 L508,120" stroke="#08120e" stroke-width="1.4" opacity="0.32" fill="none" stroke-linecap="round"/><path d="M497,161 L528,191" stroke="#08120e" stroke-width="1.4" opacity="0.32" fill="none" stroke-linecap="round"/></g><path d="M331,142 Q320,131 308,121" fill="none" stroke="url(#stem)" stroke-width="4" stroke-linecap="round"/><g><path d="M308,121 C250,136 204,82 206,22 C266,17 322,62 308,121Z" fill="url(#lf2)"/><path d="M308,121 Q258,77 201,39" fill="none" stroke="#08120e" stroke-width="1.6" opacity=".42" stroke-linecap="round"/><path d="M290,103 L243,116" stroke="#08120e" stroke-width="1.4" opacity="0.32" fill="none" stroke-linecap="round"/><path d="M290,103 L301,56" stroke="#08120e" stroke-width="1.4" opacity="0.32" fill="none" stroke-linecap="round"/><path d="M275,91 L222,105" stroke="#08120e" stroke-width="1.4" opacity="0.32" fill="none" stroke-linecap="round"/><path d="M275,91 L287,37" stroke="#08120e" stroke-width="1.4" opacity="0.32" fill="none" stroke-linecap="round"/><path d="M260,79 L203,94" stroke="#08120e" stroke-width="1.4" opacity="0.32" fill="none" stroke-linecap="round"/><path d="M260,79 L273,22" stroke="#08120e" stroke-width="1.4" opacity="0.32" fill="none" stroke-linecap="round"/><path d="M244,67 L194,81" stroke="#08120e" stroke-width="1.4" opacity="0.32" fill="none" stroke-linecap="round"/><path d="M244,67 L256,16" stroke="#08120e" stroke-width="1.4" opacity="0.32" fill="none" stroke-linecap="round"/><path d="M228,56 L184,68" stroke="#08120e" stroke-width="1.4" opacity="0.32" fill="none" stroke-linecap="round"/><path d="M228,56 L238,12" stroke="#08120e" stroke-width="1.4" opacity="0.32" fill="none" stroke-linecap="round"/><path d="M211,45 L174,56" stroke="#08120e" stroke-width="1.4" opacity="0.32" fill="none" stroke-linecap="round"/><path d="M211,45 L220,7" stroke="#08120e" stroke-width="1.4" opacity="0.32" fill="none" stroke-linecap="round"/></g><path d="M334,102 Q340,89 346,76" fill="none" stroke="url(#stem)" stroke-width="4" stroke-linecap="round"/><g><path d="M346,76 C315,31 347,-26 399,-43 C420,7 399,68 346,76Z" fill="url(#lf1)"/><path d="M346,76 Q374,22 410,-29" fill="none" stroke="#08120e" stroke-width="1.6" opacity=".42" stroke-linecap="round"/><path d="M356,55 L331,19" stroke="#08120e" stroke-width="1.4" opacity="0.32" fill="none" stroke-linecap="round"/><path d="M356,55 L399,50" stroke="#08120e" stroke-width="1.4" opacity="0.32" fill="none" stroke-linecap="round"/><path d="M364,39 L336,-1" stroke="#08120e" stroke-width="1.4" opacity="0.32" fill="none" stroke-linecap="round"/><path d="M364,39 L413,33" stroke="#08120e" stroke-width="1.4" opacity="0.32" fill="none" stroke-linecap="round"/><path d="M373,24 L343,-19" stroke="#08120e" stroke-width="1.4" opacity="0.32" fill="none" stroke-linecap="round"/><path d="M373,24 L425,17" stroke="#08120e" stroke-width="1.4" opacity="0.32" fill="none" stroke-linecap="round"/><path d="M382,9 L356,-29" stroke="#08120e" stroke-width="1.4" opacity="0.32" fill="none" stroke-linecap="round"/><path d="M382,9 L428,3" stroke="#08120e" stroke-width="1.4" opacity="0.32" fill="none" stroke-linecap="round"/><path d="M393,-6 L369,-39" stroke="#08120e" stroke-width="1.4" opacity="0.32" fill="none" stroke-linecap="round"/><path d="M393,-6 L433,-11" stroke="#08120e" stroke-width="1.4" opacity="0.32" fill="none" stroke-linecap="round"/><path d="M403,-21 L383,-49" stroke="#08120e" stroke-width="1.4" opacity="0.32" fill="none" stroke-linecap="round"/><path d="M403,-21 L438,-25" stroke="#08120e" stroke-width="1.4" opacity="0.32" fill="none" stroke-linecap="round"/></g></g><g transform="translate(-46,235) scale(0.480)" opacity="0.7"><path d="M244,440 L396,440 L369,556 Q320,566 271,556 Z" fill="url(#potg)"/><path d="M244,440 L251,440 L278,554 L271,554 Z" fill="#eafff2" opacity=".08"/><path d="M396,440 L392,440 L365,554 L369,554 Z" fill="#7CFFC4" opacity=".10"/><rect x="244" y="479" width="152" height="2" fill="#7CFFC4" opacity=".22"/><ellipse cx="320" cy="440" rx="76" ry="17" fill="#08110e"/><ellipse cx="320" cy="440" rx="76" ry="17" fill="none" stroke="#7CFFC4" stroke-width="2" opacity=".6"/><ellipse cx="320" cy="443" rx="66" ry="13" fill="#0c1814"/><path d="M320,442 Q269,423 214,413" fill="none" stroke="url(#stem)" stroke-width="6" stroke-linecap="round"/><g><path d="M214,413 C144,522 54,474 79,348 C163,250 257,292 214,413Z" fill="url(#lf2)"/><path d="M214,413 Q146,391 69,388" fill="none" stroke="#08120e" stroke-width="1.6" opacity=".42" stroke-linecap="round"/><path d="M189,403 L100,461" stroke="#08120e" stroke-width="1.4" opacity="0.32" fill="none" stroke-linecap="round"/><path d="M189,403 L180,297" stroke="#08120e" stroke-width="1.4" opacity="0.32" fill="none" stroke-linecap="round"/><path d="M173,398 L74,462" stroke="#08120e" stroke-width="1.4" opacity="0.32" fill="none" stroke-linecap="round"/><path d="M173,398 L163,280" stroke="#08120e" stroke-width="1.4" opacity="0.32" fill="none" stroke-linecap="round"/><path d="M156,393 L47,464" stroke="#08120e" stroke-width="1.4" opacity="0.32" fill="none" stroke-linecap="round"/><path d="M156,393 L145,264" stroke="#08120e" stroke-width="1.4" opacity="0.32" fill="none" stroke-linecap="round"/><path d="M138,390 L38,456" stroke="#08120e" stroke-width="1.4" opacity="0.32" fill="none" stroke-linecap="round"/><path d="M138,390 L128,270" stroke="#08120e" stroke-width="1.4" opacity="0.32" fill="none" stroke-linecap="round"/><path d="M120,388 L30,447" stroke="#08120e" stroke-width="1.4" opacity="0.32" fill="none" stroke-linecap="round"/><path d="M120,388 L111,280" stroke="#08120e" stroke-width="1.4" opacity="0.32" fill="none" stroke-linecap="round"/><path d="M102,387 L21,440" stroke="#08120e" stroke-width="1.4" opacity="0.32" fill="none" stroke-linecap="round"/><path d="M102,387 L94,291" stroke="#08120e" stroke-width="1.4" opacity="0.32" fill="none" stroke-linecap="round"/><path d="M83,387 L12,434" stroke="#08120e" stroke-width="1.4" opacity="0.32" fill="none" stroke-linecap="round"/><path d="M83,387 L76,303" stroke="#08120e" stroke-width="1.4" opacity="0.32" fill="none" stroke-linecap="round"/></g><path d="M320,442 Q285,378 247,316" fill="none" stroke="url(#stem)" stroke-width="6" stroke-linecap="round"/><g><path d="M247,316 C116,364 69,264 173,171 C309,142 363,238 247,316Z" fill="url(#lf1)"/><path d="M247,316 Q208,250 163,187" fill="none" stroke="#08120e" stroke-width="1.8" opacity=".42" stroke-linecap="round"/><path d="M233,290 L119,282" stroke="#08120e" stroke-width="1.4" opacity="0.32" fill="none" stroke-linecap="round"/><path d="M233,290 L294,193" stroke="#08120e" stroke-width="1.4" opacity="0.32" fill="none" stroke-linecap="round"/><path d="M224,274 L97,265" stroke="#08120e" stroke-width="1.4" opacity="0.32" fill="none" stroke-linecap="round"/><path d="M224,274 L291,166" stroke="#08120e" stroke-width="1.4" opacity="0.32" fill="none" stroke-linecap="round"/><path d="M214,258 L74,249" stroke="#08120e" stroke-width="1.4" opacity="0.32" fill="none" stroke-linecap="round"/><path d="M214,258 L288,140" stroke="#08120e" stroke-width="1.4" opacity="0.32" fill="none" stroke-linecap="round"/><path d="M204,243 L74,234" stroke="#08120e" stroke-width="1.4" opacity="0.32" fill="none" stroke-linecap="round"/><path d="M204,243 L273,133" stroke="#08120e" stroke-width="1.4" opacity="0.32" fill="none" stroke-linecap="round"/><path d="M193,227 L76,220" stroke="#08120e" stroke-width="1.4" opacity="0.32" fill="none" stroke-linecap="round"/><path d="M193,227 L256,128" stroke="#08120e" stroke-width="1.4" opacity="0.32" fill="none" stroke-linecap="round"/><path d="M183,212 L78,205" stroke="#08120e" stroke-width="1.4" opacity="0.32" fill="none" stroke-linecap="round"/><path d="M183,212 L238,124" stroke="#08120e" stroke-width="1.4" opacity="0.32" fill="none" stroke-linecap="round"/><path d="M171,197 L80,191" stroke="#08120e" stroke-width="1.4" opacity="0.32" fill="none" stroke-linecap="round"/><path d="M171,197 L220,120" stroke="#08120e" stroke-width="1.4" opacity="0.32" fill="none" stroke-linecap="round"/></g><path d="M320,442 Q337,369 356,296" fill="none" stroke="url(#stem)" stroke-width="6" stroke-linecap="round"/><g><path d="M356,296 C226,252 253,147 390,140 C512,202 493,309 356,296Z" fill="url(#lf2)"/><path d="M356,296 Q375,223 398,151" fill="none" stroke="#08120e" stroke-width="1.8" opacity=".42" stroke-linecap="round"/><path d="M363,268 L280,192" stroke="#08120e" stroke-width="1.4" opacity="0.32" fill="none" stroke-linecap="round"/><path d="M363,268 L469,232" stroke="#08120e" stroke-width="1.4" opacity="0.32" fill="none" stroke-linecap="round"/><path d="M367,251 L275,166" stroke="#08120e" stroke-width="1.4" opacity="0.32" fill="none" stroke-linecap="round"/><path d="M367,251 L486,210" stroke="#08120e" stroke-width="1.4" opacity="0.32" fill="none" stroke-linecap="round"/><path d="M372,233 L271,139" stroke="#08120e" stroke-width="1.4" opacity="0.32" fill="none" stroke-linecap="round"/><path d="M372,233 L502,189" stroke="#08120e" stroke-width="1.4" opacity="0.32" fill="none" stroke-linecap="round"/><path d="M377,216 L283,128" stroke="#08120e" stroke-width="1.4" opacity="0.32" fill="none" stroke-linecap="round"/><path d="M377,216 L498,174" stroke="#08120e" stroke-width="1.4" opacity="0.32" fill="none" stroke-linecap="round"/><path d="M382,198 L298,120" stroke="#08120e" stroke-width="1.4" opacity="0.32" fill="none" stroke-linecap="round"/><path d="M382,198 L492,161" stroke="#08120e" stroke-width="1.4" opacity="0.32" fill="none" stroke-linecap="round"/><path d="M388,181 L312,111" stroke="#08120e" stroke-width="1.4" opacity="0.32" fill="none" stroke-linecap="round"/><path d="M388,181 L485,148" stroke="#08120e" stroke-width="1.4" opacity="0.32" fill="none" stroke-linecap="round"/><path d="M394,164 L328,102" stroke="#08120e" stroke-width="1.4" opacity="0.32" fill="none" stroke-linecap="round"/><path d="M394,164 L479,134" stroke="#08120e" stroke-width="1.4" opacity="0.32" fill="none" stroke-linecap="round"/></g><path d="M320,442 Q371,402 428,368" fill="none" stroke="url(#stem)" stroke-width="6" stroke-linecap="round"/><g><path d="M428,368 C353,262 432,197 540,267 C598,382 525,453 428,368Z" fill="url(#lf1)"/><path d="M428,368 Q486,327 555,298" fill="none" stroke="#08120e" stroke-width="1.6" opacity=".42" stroke-linecap="round"/><path d="M449,351 L429,247" stroke="#08120e" stroke-width="1.4" opacity="0.32" fill="none" stroke-linecap="round"/><path d="M449,351 L550,382" stroke="#08120e" stroke-width="1.4" opacity="0.32" fill="none" stroke-linecap="round"/><path d="M463,341 L440,225" stroke="#08120e" stroke-width="1.4" opacity="0.32" fill="none" stroke-linecap="round"/><path d="M463,341 L575,375" stroke="#08120e" stroke-width="1.4" opacity="0.32" fill="none" stroke-linecap="round"/><path d="M478,332 L453,205" stroke="#08120e" stroke-width="1.4" opacity="0.32" fill="none" stroke-linecap="round"/><path d="M478,332 L601,370" stroke="#08120e" stroke-width="1.4" opacity="0.32" fill="none" stroke-linecap="round"/><path d="M493,323 L470,205" stroke="#08120e" stroke-width="1.4" opacity="0.32" fill="none" stroke-linecap="round"/><path d="M493,323 L608,359" stroke="#08120e" stroke-width="1.4" opacity="0.32" fill="none" stroke-linecap="round"/><path d="M509,315 L488,209" stroke="#08120e" stroke-width="1.4" opacity="0.32" fill="none" stroke-linecap="round"/><path d="M509,315 L612,347" stroke="#08120e" stroke-width="1.4" opacity="0.32" fill="none" stroke-linecap="round"/><path d="M525,309 L507,214" stroke="#08120e" stroke-width="1.4" opacity="0.32" fill="none" stroke-linecap="round"/><path d="M525,309 L618,337" stroke="#08120e" stroke-width="1.4" opacity="0.32" fill="none" stroke-linecap="round"/><path d="M543,302 L526,219" stroke="#08120e" stroke-width="1.4" opacity="0.32" fill="none" stroke-linecap="round"/><path d="M543,302 L624,327" stroke="#08120e" stroke-width="1.4" opacity="0.32" fill="none" stroke-linecap="round"/></g><path d="M320,442 Q369,437 422,444" fill="none" stroke="url(#stem)" stroke-width="6" stroke-linecap="round"/><g><path d="M422,444 C407,331 495,313 550,413 C548,526 462,551 422,444Z" fill="url(#lf2)"/><path d="M422,444 Q485,442 555,466" fill="none" stroke="#08120e" stroke-width="1.6" opacity=".42" stroke-linecap="round"/><path d="M445,441 L472,351" stroke="#08120e" stroke-width="1.4" opacity="0.32" fill="none" stroke-linecap="round"/><path d="M445,441 L511,507" stroke="#08120e" stroke-width="1.4" opacity="0.32" fill="none" stroke-linecap="round"/><path d="M460,440 L491,341" stroke="#08120e" stroke-width="1.4" opacity="0.32" fill="none" stroke-linecap="round"/><path d="M460,440 L534,514" stroke="#08120e" stroke-width="1.4" opacity="0.32" fill="none" stroke-linecap="round"/><path d="M476,441 L509,332" stroke="#08120e" stroke-width="1.4" opacity="0.32" fill="none" stroke-linecap="round"/><path d="M476,441 L557,522" stroke="#08120e" stroke-width="1.4" opacity="0.32" fill="none" stroke-linecap="round"/><path d="M492,444 L523,342" stroke="#08120e" stroke-width="1.4" opacity="0.32" fill="none" stroke-linecap="round"/><path d="M492,444 L567,519" stroke="#08120e" stroke-width="1.4" opacity="0.32" fill="none" stroke-linecap="round"/><path d="M509,448 L536,356" stroke="#08120e" stroke-width="1.4" opacity="0.32" fill="none" stroke-linecap="round"/><path d="M509,448 L576,516" stroke="#08120e" stroke-width="1.4" opacity="0.32" fill="none" stroke-linecap="round"/><path d="M525,453 L550,371" stroke="#08120e" stroke-width="1.4" opacity="0.32" fill="none" stroke-linecap="round"/><path d="M525,453 L586,514" stroke="#08120e" stroke-width="1.4" opacity="0.32" fill="none" stroke-linecap="round"/><path d="M543,460 L564,388" stroke="#08120e" stroke-width="1.4" opacity="0.32" fill="none" stroke-linecap="round"/><path d="M543,460 L595,513" stroke="#08120e" stroke-width="1.4" opacity="0.32" fill="none" stroke-linecap="round"/></g></g></svg>