<svg xmlns="http://www.w3.org/2000/svg" viewBox="0 0 760 460" width="760" height="460" aria-hidden="true"><defs>
<radialGradient id="bg" cx="50%" cy="32%" r="80%"><stop offset="0" stop-color="#0e201c"/><stop offset="52%" stop-color="#071110"/><stop offset="1" stop-color="#03080a"/></radialGradient>
<radialGradient id="halo" cx="50%" cy="50%" r="50%"><stop offset="0" stop-color="#9B7CFF" stop-opacity=".38"/><stop offset="55%" stop-color="#9B7CFF" stop-opacity=".09"/><stop offset="1" stop-color="#9B7CFF" stop-opacity="0"/></radialGradient>
<linearGradient id="lf1" x1="0" y1="1" x2=".35" y2="0"><stop offset="0" stop-color="#2b1f56"/><stop offset="1" stop-color="#7d6bd6"/></linearGradient>
<linearGradient id="lf2" x1="0" y1="1" x2=".65" y2="0"><stop offset="0" stop-color="#2b1f56"/><stop offset="1" stop-color="#ab8dff"/></linearGradient>
<linearGradient id="stem" x1="0" y1="1" x2="0" y2="0"><stop offset="0" stop-color="#1b3a30"/><stop offset="1" stop-color="#7d6bd6" stop-opacity=".9"/></linearGradient>
<linearGradient id="trunk" x1="0" y1="1" x2="1" y2="0"><stop offset="0" stop-color="#16302a"/><stop offset="1" stop-color="#7d6bd6" stop-opacity=".7"/></linearGradient>
<linearGradient id="cane" x1="0" y1="0" x2="1" y2="0"><stop offset="0" stop-color="#16342c"/><stop offset=".45" stop-color="#7d6bd6"/><stop offset="1" stop-color="#0f2620"/></linearGradient>
<radialGradient id="core" cx="50%" cy="50%" r="50%"><stop offset="0" stop-color="#9B7CFF"/><stop offset="1" stop-color="#9B7CFF" stop-opacity="0"/></radialGradient>
<linearGradient id="potg" x1="0" y1="0" x2="1" y2="1"><stop offset="0" stop-color="#182422"/><stop offset="1" stop-color="#090f0f"/></linearGradient>
<linearGradient id="floor" x1="0" y1="0" x2="1" y2="0"><stop offset="0" stop-color="#9B7CFF" stop-opacity="0"/><stop offset=".5" stop-color="#9B7CFF" stop-opacity=".55"/><stop offset="1" stop-color="#9B7CFF" stop-opacity="0"/></linearGradient>
</defs><rect width="760" height="460" fill="url(#bg)"/><g opacity=".13" stroke="#9B7CFF" stroke-width=".7"><path d="M0,0 H760"/><path d="M0,38 H760"/><path d="M0,76 H760"/><path d="M0,114 H760"/><path d="M0,152 H760"/><path d="M0,190 H760"/><path d="M0,228 H760"/><path d="M0,266 H760"/><path d="M0,304 H760"/><path d="M0,342 H760"/><path d="M0,380 H760"/><path d="M0,418 H760"/><path d="M0,456 H760"/><path d="M0,0 V460"/><path d="M38,0 V460"/><path d="M76,0 V460"/><path d="M114,0 V460"/><path d="M152,0 V460"/><path d="M190,0 V460"/><path d="M228,0 V460"/><path d="M266,0 V460"/><path d="M304,0 V460"/><path d="M342,0 V460"/><path d="M380,0 V460"/><path d="M418,0 V460"/><path d="M456,0 V460"/><path d="M494,0 V460"/><path d="M532,0 V460"/><path d="M570,0 V460"/><path d="M608,0 V460"/><path d="M646,0 V460"/><path d="M684,0 V460"/><path d="M722,0 V460"/></g><ellipse cx="456" cy="175" rx="334" ry="301" fill="url(#halo)"/><g transform="translate(13,89) scale(0.740)"><path d="M245,438 L395,438 L368,556 Q320,566 272,556 Z" fill="url(#potg)"/><path d="M245,438 L252,438 L279,554 L272,554 Z" fill="#eafff2" opacity=".08"/><path d="M395,438 L391,438 L364,554 L368,554 Z" fill="#9B7CFF" opacity=".10"/><rect x="245" y="478" width="150" height="2" fill="#9B7CFF" opacity=".22"/><ellipse cx="320" cy="438" rx="75" ry="17" fill="#08110e"/><ellipse cx="320" cy="438" rx="75" ry="17" fill="none" stroke="#9B7CFF" stroke-width="2" opacity=".6"/><ellipse cx="320" cy="441" rx="65" ry="13" fill="#0c1814"/><g><path d="M310,438 C251,410 169,344 143,308 C184,325 268,389 310,438Z" fill="url(#lf2)"/><path d="M310,438 Q227,383 135,339" fill="none" stroke="#08120e" stroke-width="2.3" opacity=".42" stroke-linecap="round"/></g><g><path d="M312,438 C252,387 172,286 149,237 C192,269 275,368 312,438Z" fill="url(#lf1)"/><path d="M312,438 Q230,348 138,266" fill="none" stroke="#08120e" stroke-width="2.8" opacity=".42" stroke-linecap="round"/></g><g><path d="M315,438 C261,365 198,230 184,171 C223,218 290,351 315,438Z" fill="url(#lf2)"/><path d="M315,438 Q249,315 173,196" fill="none" stroke="#08120e" stroke-width="3.3" opacity=".42" stroke-linecap="round"/></g><g><path d="M317,438 C279,347 244,187 244,120 C274,180 312,339 317,438Z" fill="url(#lf1)"/><path d="M317,438 Q280,289 237,142" fill="none" stroke="#08120e" stroke-width="3.6" opacity=".42" stroke-linecap="round"/></g><g><path d="M320,438 C301,336 304,166 320,98 C336,166 339,336 320,438Z" fill="url(#lf2)"/><path d="M320,438 Q320,278 320,118" fill="none" stroke="#08120e" stroke-width="3.7" opacity=".42" stroke-linecap="round"/></g><g><path d="M323,438 C328,339 366,180 396,120 C396,187 361,347 323,438Z" fill="url(#lf1)"/><path d="M323,438 Q360,289 403,142" fill="none" stroke="#08120e" stroke-width="3.6" opacity=".42" stroke-linecap="round"/></g><g><path d="M325,438 C350,351 417,218 456,171 C442,230 379,365 325,438Z" fill="url(#lf2)"/><path d="M325,438 Q391,315 467,196" fill="none" stroke="#08120e" stroke-width="3.3" opacity=".42" stroke-linecap="round"/></g><g><path d="M328,438 C365,368 448,269 491,237 C468,286 388,387 328,438Z" fill="url(#lf1)"/><path d="M328,438 Q410,348 502,266" fill="none" stroke="#08120e" stroke-width="2.8" opacity=".42" stroke-linecap="round"/></g><g><path d="M330,438 C372,389 456,325 497,308 C471,344 389,410 330,438Z" fill="url(#lf2)"/><path d="M330,438 Q413,383 505,339" fill="none" stroke="#08120e" stroke-width="2.3" opacity=".42" stroke-linecap="round"/></g></g><g stroke="#9B7CFF" fill="none" opacity=".45"><circle cx="532" cy="156" r="46" stroke-width="1.2"/><circle cx="532" cy="156" r="72" stroke-width="1" stroke-dasharray="2 10"/><path d="M466,156 h20 M578,156 h20 M532,90 v20 M532,202 v20" stroke-width="1.4"/></g><rect x="53" y="386" width="5" height="6" fill="#9B7CFF" opacity="0.22"/><rect x="66" y="386" width="5" height="13" fill="#9B7CFF" opacity="0.42"/><rect x="79" y="386" width="5" height="20" fill="#9B7CFF" opacity="0.62"/><rect x="92" y="386" width="5" height="27" fill="#9B7CFF" opacity="0.22"/><rect x="105" y="386" width="5" height="10" fill="#9B7CFF" opacity="0.42"/><rect x="118" y="386" width="5" height="17" fill="#9B7CFF" opacity="0.62"/><rect x="131" y="386" width="5" height="24" fill="#9B7CFF" opacity="0.22"/><rect x="144" y="386" width="5" height="7" fill="#9B7CFF" opacity="0.42"/><rect x="157" y="386" width="5" height="14" fill="#9B7CFF" opacity="0.62"/><rect x="170" y="386" width="5" height="21" fill="#9B7CFF" opacity="0.22"/><rect x="53" y="51" width="54" height="3" fill="#9B7CFF" opacity=".75"/></svg>