<svg xmlns="http://www.w3.org/2000/svg" viewBox="0 0 760 460" width="760" height="460" aria-hidden="true"><defs>
<radialGradient id="bg" cx="50%" cy="32%" r="80%"><stop offset="0" stop-color="#0e201c"/><stop offset="52%" stop-color="#071110"/><stop offset="1" stop-color="#03080a"/></radialGradient>
<radialGradient id="halo" cx="50%" cy="50%" r="50%"><stop offset="0" stop-color="#B8FF3C" stop-opacity=".38"/><stop offset="55%" stop-color="#B8FF3C" stop-opacity=".09"/><stop offset="1" stop-color="#B8FF3C" stop-opacity="0"/></radialGradient>
<linearGradient id="lf1" x1="0" y1="1" x2=".35" y2="0"><stop offset="0" stop-color="#1d4a1c"/><stop offset="1" stop-color="#93da3c"/></linearGradient>
<linearGradient id="lf2" x1="0" y1="1" x2=".65" y2="0"><stop offset="0" stop-color="#1d4a1c"/><stop offset="1" stop-color="#c9ff52"/></linearGradient>
<linearGradient id="stem" x1="0" y1="1" x2="0" y2="0"><stop offset="0" stop-color="#1b3a30"/><stop offset="1" stop-color="#93da3c" stop-opacity=".9"/></linearGradient>
<linearGradient id="trunk" x1="0" y1="1" x2="1" y2="0"><stop offset="0" stop-color="#16302a"/><stop offset="1" stop-color="#93da3c" stop-opacity=".7"/></linearGradient>
<linearGradient id="cane" x1="0" y1="0" x2="1" y2="0"><stop offset="0" stop-color="#16342c"/><stop offset=".45" stop-color="#93da3c"/><stop offset="1" stop-color="#0f2620"/></linearGradient>
<radialGradient id="core" cx="50%" cy="50%" r="50%"><stop offset="0" stop-color="#B8FF3C"/><stop offset="1" stop-color="#B8FF3C" stop-opacity="0"/></radialGradient>
<linearGradient id="potg" x1="0" y1="0" x2="1" y2="1"><stop offset="0" stop-color="#182422"/><stop offset="1" stop-color="#090f0f"/></linearGradient>
<linearGradient id="floor" x1="0" y1="0" x2="1" y2="0"><stop offset="0" stop-color="#B8FF3C" stop-opacity="0"/><stop offset=".5" stop-color="#B8FF3C" stop-opacity=".55"/><stop offset="1" stop-color="#B8FF3C" stop-opacity="0"/></linearGradient>
</defs><rect width="760" height="460" fill="url(#bg)"/><g opacity=".13" stroke="#B8FF3C" stroke-width=".7"><path d="M0,0 H760"/><path d="M0,38 H760"/><path d="M0,76 H760"/><path d="M0,114 H760"/><path d="M0,152 H760"/><path d="M0,190 H760"/><path d="M0,228 H760"/><path d="M0,266 H760"/><path d="M0,304 H760"/><path d="M0,342 H760"/><path d="M0,380 H760"/><path d="M0,418 H760"/><path d="M0,456 H760"/><path d="M0,0 V460"/><path d="M38,0 V460"/><path d="M76,0 V460"/><path d="M114,0 V460"/><path d="M152,0 V460"/><path d="M190,0 V460"/><path d="M228,0 V460"/><path d="M266,0 V460"/><path d="M304,0 V460"/><path d="M342,0 V460"/><path d="M380,0 V460"/><path d="M418,0 V460"/><path d="M456,0 V460"/><path d="M494,0 V460"/><path d="M532,0 V460"/><path d="M570,0 V460"/><path d="M608,0 V460"/><path d="M646,0 V460"/><path d="M684,0 V460"/><path d="M722,0 V460"/></g><ellipse cx="456" cy="175" rx="334" ry="301" fill="url(#halo)"/><g transform="translate(9,-39) scale(0.740)"><path d="M223,466 L417,466 L409,556 Q320,566 231,556 Z" fill="url(#potg)"/><path d="M223,466 L230,466 L238,554 L231,554 Z" fill="#eafff2" opacity=".08"/><path d="M417,466 L413,466 L405,554 L409,554 Z" fill="#B8FF3C" opacity=".10"/><rect x="223" y="497" width="194" height="2" fill="#B8FF3C" opacity=".22"/><ellipse cx="320" cy="466" rx="97" ry="22" fill="#08110e"/><ellipse cx="320" cy="466" rx="97" ry="22" fill="none" stroke="#B8FF3C" stroke-width="2" opacity=".6"/><ellipse cx="320" cy="469" rx="87" ry="17" fill="#0c1814"/><g><path d="M320,452 C285,402 289,318 320,284 C351,318 355,402 320,452Z" fill="url(#lf1)"/><path d="M320,452 Q324,373 335,294" fill="none" stroke="#08120e" stroke-width="1.8" opacity=".42" stroke-linecap="round"/></g><g><path d="M320,452 C321,390 374,325 419,316 C424,362 378,432 320,452Z" fill="url(#lf1)"/><path d="M320,452 Q369,390 425,333" fill="none" stroke="#08120e" stroke-width="1.8" opacity=".42" stroke-linecap="round"/></g><g><path d="M320,452 C357,403 438,381 480,400 C458,440 379,470 320,452Z" fill="url(#lf1)"/><path d="M320,452 Q396,431 475,417" fill="none" stroke="#08120e" stroke-width="1.8" opacity=".42" stroke-linecap="round"/></g><g><path d="M320,452 C379,434 458,464 480,504 C438,523 357,501 320,452Z" fill="url(#lf1)"/><path d="M320,452 Q394,480 466,515" fill="none" stroke="#08120e" stroke-width="1.8" opacity=".42" stroke-linecap="round"/></g><g><path d="M320,452 C378,472 424,542 419,588 C374,579 321,514 320,452Z" fill="url(#lf1)"/><path d="M320,452 Q363,518 401,588" fill="none" stroke="#08120e" stroke-width="1.8" opacity=".42" stroke-linecap="round"/></g><g><path d="M320,452 C355,502 351,586 320,620 C289,586 285,502 320,452Z" fill="url(#lf1)"/><path d="M320,452 Q316,531 305,610" fill="none" stroke="#08120e" stroke-width="1.8" opacity=".42" stroke-linecap="round"/></g><g><path d="M320,452 C319,514 266,579 221,588 C216,542 262,472 320,452Z" fill="url(#lf1)"/><path d="M320,452 Q271,514 215,571" fill="none" stroke="#08120e" stroke-width="1.8" opacity=".42" stroke-linecap="round"/></g><g><path d="M320,452 C283,501 202,523 160,504 C182,464 261,434 320,452Z" fill="url(#lf1)"/><path d="M320,452 Q244,473 165,487" fill="none" stroke="#08120e" stroke-width="1.8" opacity=".42" stroke-linecap="round"/></g><g><path d="M320,452 C261,470 182,440 160,400 C202,381 283,403 320,452Z" fill="url(#lf1)"/><path d="M320,452 Q246,424 174,389" fill="none" stroke="#08120e" stroke-width="1.8" opacity=".42" stroke-linecap="round"/></g><g><path d="M320,452 C262,432 216,362 221,316 C266,325 319,390 320,452Z" fill="url(#lf1)"/><path d="M320,452 Q277,386 239,316" fill="none" stroke="#08120e" stroke-width="1.8" opacity=".42" stroke-linecap="round"/></g><g><path d="M320,452 C309,403 338,341 372,326 C386,361 362,425 320,452Z" fill="url(#lf2)"/><path d="M320,452 Q347,394 380,338" fill="none" stroke="#08120e" stroke-width="1.6" opacity=".42" stroke-linecap="round"/></g><g><path d="M320,452 C347,410 411,386 446,400 C431,434 369,463 320,452Z" fill="url(#lf2)"/><path d="M320,452 Q381,430 444,414" fill="none" stroke="#08120e" stroke-width="1.6" opacity=".42" stroke-linecap="round"/></g><g><path d="M320,452 C369,441 431,470 446,504 C411,518 347,494 320,452Z" fill="url(#lf2)"/><path d="M320,452 Q378,479 434,512" fill="none" stroke="#08120e" stroke-width="1.6" opacity=".42" stroke-linecap="round"/></g><g><path d="M320,452 C362,479 386,543 372,578 C338,563 309,501 320,452Z" fill="url(#lf2)"/><path d="M320,452 Q342,513 358,576" fill="none" stroke="#08120e" stroke-width="1.6" opacity=".42" stroke-linecap="round"/></g><g><path d="M320,452 C331,501 302,563 268,578 C254,543 278,479 320,452Z" fill="url(#lf2)"/><path d="M320,452 Q293,510 260,566" fill="none" stroke="#08120e" stroke-width="1.6" opacity=".42" stroke-linecap="round"/></g><g><path d="M320,452 C293,494 229,518 194,504 C209,470 271,441 320,452Z" fill="url(#lf2)"/><path d="M320,452 Q259,474 196,490" fill="none" stroke="#08120e" stroke-width="1.6" opacity=".42" stroke-linecap="round"/></g><g><path d="M320,452 C271,463 209,434 194,400 C229,386 293,410 320,452Z" fill="url(#lf2)"/><path d="M320,452 Q262,425 206,392" fill="none" stroke="#08120e" stroke-width="1.6" opacity=".42" stroke-linecap="round"/></g><g><path d="M320,452 C278,425 254,361 268,326 C302,341 331,403 320,452Z" fill="url(#lf2)"/><path d="M320,452 Q298,391 282,328" fill="none" stroke="#08120e" stroke-width="1.6" opacity=".42" stroke-linecap="round"/></g><g><path d="M320,452 C336,417 383,393 412,399 C403,427 359,455 320,452Z" fill="url(#lf1)"/><path d="M320,452 Q364,429 411,410" fill="none" stroke="#08120e" stroke-width="1.6" opacity=".42" stroke-linecap="round"/></g><g><path d="M320,452 C359,449 403,477 412,505 C383,511 336,487 320,452Z" fill="url(#lf1)"/><path d="M320,452 Q362,479 401,510" fill="none" stroke="#08120e" stroke-width="1.6" opacity=".42" stroke-linecap="round"/></g><g><path d="M320,452 C342,484 340,537 320,558 C300,537 298,484 320,452Z" fill="url(#lf1)"/><path d="M320,452 Q318,502 311,551" fill="none" stroke="#08120e" stroke-width="1.6" opacity=".42" stroke-linecap="round"/></g><g><path d="M320,452 C304,487 257,511 228,505 C237,477 281,449 320,452Z" fill="url(#lf1)"/><path d="M320,452 Q276,475 229,494" fill="none" stroke="#08120e" stroke-width="1.6" opacity=".42" stroke-linecap="round"/></g><g><path d="M320,452 C281,455 237,427 228,399 C257,393 304,417 320,452Z" fill="url(#lf1)"/><path d="M320,452 Q278,425 239,394" fill="none" stroke="#08120e" stroke-width="1.6" opacity=".42" stroke-linecap="round"/></g><g><path d="M320,452 C298,420 300,367 320,346 C340,367 342,420 320,452Z" fill="url(#lf1)"/><path d="M320,452 Q322,402 329,353" fill="none" stroke="#08120e" stroke-width="1.6" opacity=".42" stroke-linecap="round"/></g><g><path d="M320,452 C347,457 372,484 373,505 C352,504 325,479 320,452Z" fill="url(#lf2)"/><path d="M320,452 Q344,478 365,506" fill="none" stroke="#08120e" stroke-width="1.6" opacity=".42" stroke-linecap="round"/></g><g><path d="M320,452 C315,479 288,504 267,505 C268,484 293,457 320,452Z" fill="url(#lf2)"/><path d="M320,452 Q294,476 266,497" fill="none" stroke="#08120e" stroke-width="1.6" opacity=".42" stroke-linecap="round"/></g><g><path d="M320,452 C293,447 268,420 267,399 C288,400 315,425 320,452Z" fill="url(#lf2)"/><path d="M320,452 Q296,426 275,398" fill="none" stroke="#08120e" stroke-width="1.6" opacity=".42" stroke-linecap="round"/></g><g><path d="M320,452 C325,425 352,400 373,399 C372,420 347,447 320,452Z" fill="url(#lf2)"/><path d="M320,452 Q346,428 374,407" fill="none" stroke="#08120e" stroke-width="1.6" opacity=".42" stroke-linecap="round"/></g><circle cx="320" cy="452" r="17" fill="url(#core)"/></g><g stroke="#B8FF3C" fill="none" opacity=".45"><circle cx="532" cy="156" r="46" stroke-width="1.2"/><circle cx="532" cy="156" r="72" stroke-width="1" stroke-dasharray="2 10"/><path d="M466,156 h20 M578,156 h20 M532,90 v20 M532,202 v20" stroke-width="1.4"/></g><rect x="53" y="386" width="5" height="6" fill="#B8FF3C" opacity="0.22"/><rect x="66" y="386" width="5" height="13" fill="#B8FF3C" opacity="0.42"/><rect x="79" y="386" width="5" height="20" fill="#B8FF3C" opacity="0.62"/><rect x="92" y="386" width="5" height="27" fill="#B8FF3C" opacity="0.22"/><rect x="105" y="386" width="5" height="10" fill="#B8FF3C" opacity="0.42"/><rect x="118" y="386" width="5" height="17" fill="#B8FF3C" opacity="0.62"/><rect x="131" y="386" width="5" height="24" fill="#B8FF3C" opacity="0.22"/><rect x="144" y="386" width="5" height="7" fill="#B8FF3C" opacity="0.42"/><rect x="157" y="386" width="5" height="14" fill="#B8FF3C" opacity="0.62"/><rect x="170" y="386" width="5" height="21" fill="#B8FF3C" opacity="0.22"/><rect x="53" y="51" width="54" height="3" fill="#B8FF3C" opacity=".75"/></svg>