<svg xmlns="http://www.w3.org/2000/svg" viewBox="0 0 640 640" width="640" height="640" aria-hidden="true"><defs>
<radialGradient id="bg" cx="50%" cy="32%" r="80%"><stop offset="0" stop-color="#0e201c"/><stop offset="52%" stop-color="#071110"/><stop offset="1" stop-color="#03080a"/></radialGradient>
<radialGradient id="halo" cx="50%" cy="50%" r="50%"><stop offset="0" stop-color="#9B7CFF" stop-opacity=".38"/><stop offset="55%" stop-color="#9B7CFF" stop-opacity=".09"/><stop offset="1" stop-color="#9B7CFF" stop-opacity="0"/></radialGradient>
<linearGradient id="lf1" x1="0" y1="1" x2=".35" y2="0"><stop offset="0" stop-color="#2b1f56"/><stop offset="1" stop-color="#7d6bd6"/></linearGradient>
<linearGradient id="lf2" x1="0" y1="1" x2=".65" y2="0"><stop offset="0" stop-color="#2b1f56"/><stop offset="1" stop-color="#ab8dff"/></linearGradient>
<linearGradient id="stem" x1="0" y1="1" x2="0" y2="0"><stop offset="0" stop-color="#1b3a30"/><stop offset="1" stop-color="#7d6bd6" stop-opacity=".9"/></linearGradient>
<linearGradient id="trunk" x1="0" y1="1" x2="1" y2="0"><stop offset="0" stop-color="#16302a"/><stop offset="1" stop-color="#7d6bd6" stop-opacity=".7"/></linearGradient>
<linearGradient id="cane" x1="0" y1="0" x2="1" y2="0"><stop offset="0" stop-color="#16342c"/><stop offset=".45" stop-color="#7d6bd6"/><stop offset="1" stop-color="#0f2620"/></linearGradient>
<radialGradient id="core" cx="50%" cy="50%" r="50%"><stop offset="0" stop-color="#9B7CFF"/><stop offset="1" stop-color="#9B7CFF" stop-opacity="0"/></radialGradient>
<linearGradient id="potg" x1="0" y1="0" x2="1" y2="1"><stop offset="0" stop-color="#182422"/><stop offset="1" stop-color="#090f0f"/></linearGradient>
<linearGradient id="floor" x1="0" y1="0" x2="1" y2="0"><stop offset="0" stop-color="#9B7CFF" stop-opacity="0"/><stop offset=".5" stop-color="#9B7CFF" stop-opacity=".55"/><stop offset="1" stop-color="#9B7CFF" stop-opacity="0"/></linearGradient>
</defs><rect width="640" height="640" fill="url(#bg)"/><g opacity=".14" stroke="#9B7CFF" stroke-width=".7"><path d="M0,0 H640"/><path d="M0,44 H640"/><path d="M0,88 H640"/><path d="M0,132 H640"/><path d="M0,176 H640"/><path d="M0,220 H640"/><path d="M0,264 H640"/><path d="M0,308 H640"/><path d="M0,352 H640"/><path d="M0,396 H640"/><path d="M0,440 H640"/><path d="M0,484 H640"/><path d="M0,528 H640"/><path d="M0,572 H640"/><path d="M0,616 H640"/><path d="M0,0 V640"/><path d="M44,0 V640"/><path d="M88,0 V640"/><path d="M132,0 V640"/><path d="M176,0 V640"/><path d="M220,0 V640"/><path d="M264,0 V640"/><path d="M308,0 V640"/><path d="M352,0 V640"/><path d="M396,0 V640"/><path d="M440,0 V640"/><path d="M484,0 V640"/><path d="M528,0 V640"/><path d="M572,0 V640"/><path d="M616,0 V640"/></g><ellipse cx="320" cy="256" rx="294" ry="294" fill="url(#halo)"/><ellipse cx="320" cy="556" rx="218" ry="18" fill="url(#halo)"/><rect x="77" y="556" width="486" height="2" fill="url(#floor)"/><path d="M242,444 L398,444 L370,556 Q320,566 270,556 Z" fill="url(#potg)"/><path d="M242,444 L249,444 L277,554 L270,554 Z" fill="#eafff2" opacity=".08"/><path d="M398,444 L394,444 L366,554 L370,554 Z" fill="#9B7CFF" opacity=".10"/><rect x="242" y="482" width="156" height="2" fill="#9B7CFF" opacity=".22"/><ellipse cx="320" cy="444" rx="78" ry="18" fill="#08110e"/><ellipse cx="320" cy="444" rx="78" ry="18" fill="none" stroke="#9B7CFF" stroke-width="2" opacity=".6"/><ellipse cx="320" cy="447" rx="68" ry="14" fill="#0c1814"/><rect x="273" y="128" width="95" height="316" rx="47" fill="url(#lf1)"/><path d="M284,166 L284,416" stroke="#08120e" stroke-width="2" opacity=".38" stroke-linecap="round"/><circle cx="284" cy="175" r="1.8" fill="#d8ffee" opacity=".35"/><circle cx="284" cy="234" r="1.8" fill="#d8ffee" opacity=".35"/><circle cx="284" cy="292" r="1.8" fill="#d8ffee" opacity=".35"/><circle cx="284" cy="351" r="1.8" fill="#d8ffee" opacity=".35"/><circle cx="284" cy="409" r="1.8" fill="#d8ffee" opacity=".35"/><path d="M308,166 L308,416" stroke="#08120e" stroke-width="2" opacity=".38" stroke-linecap="round"/><circle cx="308" cy="175" r="1.8" fill="#d8ffee" opacity=".35"/><circle cx="308" cy="234" r="1.8" fill="#d8ffee" opacity=".35"/><circle cx="308" cy="292" r="1.8" fill="#d8ffee" opacity=".35"/><circle cx="308" cy="351" r="1.8" fill="#d8ffee" opacity=".35"/><circle cx="308" cy="409" r="1.8" fill="#d8ffee" opacity=".35"/><path d="M332,166 L332,416" stroke="#08120e" stroke-width="2" opacity=".38" stroke-linecap="round"/><circle cx="332" cy="175" r="1.8" fill="#d8ffee" opacity=".35"/><circle cx="332" cy="234" r="1.8" fill="#d8ffee" opacity=".35"/><circle cx="332" cy="292" r="1.8" fill="#d8ffee" opacity=".35"/><circle cx="332" cy="351" r="1.8" fill="#d8ffee" opacity=".35"/><circle cx="332" cy="409" r="1.8" fill="#d8ffee" opacity=".35"/><path d="M356,166 L356,416" stroke="#08120e" stroke-width="2" opacity=".38" stroke-linecap="round"/><circle cx="356" cy="175" r="1.8" fill="#d8ffee" opacity=".35"/><circle cx="356" cy="234" r="1.8" fill="#d8ffee" opacity=".35"/><circle cx="356" cy="292" r="1.8" fill="#d8ffee" opacity=".35"/><circle cx="356" cy="351" r="1.8" fill="#d8ffee" opacity=".35"/><circle cx="356" cy="409" r="1.8" fill="#d8ffee" opacity=".35"/><rect x="373" y="248" width="57" height="196" rx="28" fill="url(#lf2)"/><path d="M380,271 L380,427" stroke="#08120e" stroke-width="2" opacity=".38" stroke-linecap="round"/><circle cx="380" cy="277" r="1.8" fill="#d8ffee" opacity=".35"/><circle cx="380" cy="313" r="1.8" fill="#d8ffee" opacity=".35"/><circle cx="380" cy="349" r="1.8" fill="#d8ffee" opacity=".35"/><circle cx="380" cy="385" r="1.8" fill="#d8ffee" opacity=".35"/><circle cx="380" cy="422" r="1.8" fill="#d8ffee" opacity=".35"/><path d="M394,271 L394,427" stroke="#08120e" stroke-width="2" opacity=".38" stroke-linecap="round"/><circle cx="394" cy="277" r="1.8" fill="#d8ffee" opacity=".35"/><circle cx="394" cy="313" r="1.8" fill="#d8ffee" opacity=".35"/><circle cx="394" cy="349" r="1.8" fill="#d8ffee" opacity=".35"/><circle cx="394" cy="385" r="1.8" fill="#d8ffee" opacity=".35"/><circle cx="394" cy="422" r="1.8" fill="#d8ffee" opacity=".35"/><path d="M409,271 L409,427" stroke="#08120e" stroke-width="2" opacity=".38" stroke-linecap="round"/><circle cx="409" cy="277" r="1.8" fill="#d8ffee" opacity=".35"/><circle cx="409" cy="313" r="1.8" fill="#d8ffee" opacity=".35"/><circle cx="409" cy="349" r="1.8" fill="#d8ffee" opacity=".35"/><circle cx="409" cy="385" r="1.8" fill="#d8ffee" opacity=".35"/><circle cx="409" cy="422" r="1.8" fill="#d8ffee" opacity=".35"/><path d="M423,271 L423,427" stroke="#08120e" stroke-width="2" opacity=".38" stroke-linecap="round"/><circle cx="423" cy="277" r="1.8" fill="#d8ffee" opacity=".35"/><circle cx="423" cy="313" r="1.8" fill="#d8ffee" opacity=".35"/><circle cx="423" cy="349" r="1.8" fill="#d8ffee" opacity=".35"/><circle cx="423" cy="385" r="1.8" fill="#d8ffee" opacity=".35"/><circle cx="423" cy="422" r="1.8" fill="#d8ffee" opacity=".35"/><path d="M360,280 Q402,267 402,311" fill="none" stroke="url(#lf2)" stroke-width="40" stroke-linecap="round"/><rect x="220" y="305" width="49" height="139" rx="25" fill="url(#lf2)"/><path d="M226,325 L226,429" stroke="#08120e" stroke-width="2" opacity=".38" stroke-linecap="round"/><circle cx="226" cy="330" r="1.8" fill="#d8ffee" opacity=".35"/><circle cx="226" cy="355" r="1.8" fill="#d8ffee" opacity=".35"/><circle cx="226" cy="381" r="1.8" fill="#d8ffee" opacity=".35"/><circle cx="226" cy="407" r="1.8" fill="#d8ffee" opacity=".35"/><circle cx="226" cy="433" r="1.8" fill="#d8ffee" opacity=".35"/><path d="M238,325 L238,429" stroke="#08120e" stroke-width="2" opacity=".38" stroke-linecap="round"/><circle cx="238" cy="330" r="1.8" fill="#d8ffee" opacity=".35"/><circle cx="238" cy="355" r="1.8" fill="#d8ffee" opacity=".35"/><circle cx="238" cy="381" r="1.8" fill="#d8ffee" opacity=".35"/><circle cx="238" cy="407" r="1.8" fill="#d8ffee" opacity=".35"/><circle cx="238" cy="433" r="1.8" fill="#d8ffee" opacity=".35"/><path d="M250,325 L250,429" stroke="#08120e" stroke-width="2" opacity=".38" stroke-linecap="round"/><circle cx="250" cy="330" r="1.8" fill="#d8ffee" opacity=".35"/><circle cx="250" cy="355" r="1.8" fill="#d8ffee" opacity=".35"/><circle cx="250" cy="381" r="1.8" fill="#d8ffee" opacity=".35"/><circle cx="250" cy="407" r="1.8" fill="#d8ffee" opacity=".35"/><circle cx="250" cy="433" r="1.8" fill="#d8ffee" opacity=".35"/><path d="M263,325 L263,429" stroke="#08120e" stroke-width="2" opacity=".38" stroke-linecap="round"/><circle cx="263" cy="330" r="1.8" fill="#d8ffee" opacity=".35"/><circle cx="263" cy="355" r="1.8" fill="#d8ffee" opacity=".35"/><circle cx="263" cy="381" r="1.8" fill="#d8ffee" opacity=".35"/><circle cx="263" cy="407" r="1.8" fill="#d8ffee" opacity=".35"/><circle cx="263" cy="433" r="1.8" fill="#d8ffee" opacity=".35"/><path d="M282,337 Q244,324 244,362" fill="none" stroke="url(#lf2)" stroke-width="34" stroke-linecap="round"/><circle cx="320" cy="126" r="13" fill="url(#core)"/><g><path d="M320,126 C316,120 316,110 320,106 C324,110 324,120 320,126Z" fill="#9B7CFF"/><path d="M320,126 Q320,117 320,107" fill="none" stroke="#08120e" stroke-width="1.6" opacity=".42" stroke-linecap="round"/></g><g><path d="M320,126 C322,119 330,113 336,114 C335,119 327,126 320,126Z" fill="#9B7CFF"/><path d="M320,126 Q327,120 335,114" fill="none" stroke="#08120e" stroke-width="1.6" opacity=".42" stroke-linecap="round"/></g><g><path d="M320,126 C327,123 336,126 339,130 C335,133 325,132 320,126Z" fill="#9B7CFF"/><path d="M320,126 Q329,128 338,130" fill="none" stroke="#08120e" stroke-width="1.6" opacity=".42" stroke-linecap="round"/></g><g><path d="M320,126 C327,130 330,139 329,144 C323,142 319,133 320,126Z" fill="#9B7CFF"/><path d="M320,126 Q324,134 328,143" fill="none" stroke="#08120e" stroke-width="1.6" opacity=".42" stroke-linecap="round"/></g><g><path d="M320,126 C321,133 317,142 311,144 C310,139 313,130 320,126Z" fill="#9B7CFF"/><path d="M320,126 Q316,134 312,143" fill="none" stroke="#08120e" stroke-width="1.6" opacity=".42" stroke-linecap="round"/></g><g><path d="M320,126 C315,132 305,133 301,130 C304,126 313,123 320,126Z" fill="#9B7CFF"/><path d="M320,126 Q311,128 302,130" fill="none" stroke="#08120e" stroke-width="1.6" opacity=".42" stroke-linecap="round"/></g><g><path d="M320,126 C313,126 305,119 304,114 C310,113 318,119 320,126Z" fill="#9B7CFF"/><path d="M320,126 Q313,120 305,114" fill="none" stroke="#08120e" stroke-width="1.6" opacity=".42" stroke-linecap="round"/></g><circle cx="402" cy="247" r="13" fill="url(#core)"/><g><path d="M402,247 C397,241 398,231 402,227 C405,231 406,241 402,247Z" fill="#9B7CFF"/><path d="M402,247 Q402,238 402,228" fill="none" stroke="#08120e" stroke-width="1.6" opacity=".42" stroke-linecap="round"/></g><g><path d="M402,247 C404,240 412,234 417,235 C416,240 409,247 402,247Z" fill="#9B7CFF"/><path d="M402,247 Q409,241 416,235" fill="none" stroke="#08120e" stroke-width="1.6" opacity=".42" stroke-linecap="round"/></g><g><path d="M402,247 C408,244 418,247 421,252 C416,254 406,253 402,247Z" fill="#9B7CFF"/><path d="M402,247 Q411,249 420,251" fill="none" stroke="#08120e" stroke-width="1.6" opacity=".42" stroke-linecap="round"/></g><g><path d="M402,247 C408,251 412,260 410,265 C405,263 400,254 402,247Z" fill="#9B7CFF"/><path d="M402,247 Q406,256 410,264" fill="none" stroke="#08120e" stroke-width="1.6" opacity=".42" stroke-linecap="round"/></g><g><path d="M402,247 C403,254 398,263 393,265 C391,260 395,251 402,247Z" fill="#9B7CFF"/><path d="M402,247 Q397,256 393,264" fill="none" stroke="#08120e" stroke-width="1.6" opacity=".42" stroke-linecap="round"/></g><g><path d="M402,247 C397,253 387,254 382,252 C385,247 395,244 402,247Z" fill="#9B7CFF"/><path d="M402,247 Q392,249 383,251" fill="none" stroke="#08120e" stroke-width="1.6" opacity=".42" stroke-linecap="round"/></g><g><path d="M402,247 C394,247 387,240 386,235 C391,234 400,240 402,247Z" fill="#9B7CFF"/><path d="M402,247 Q394,241 387,235" fill="none" stroke="#08120e" stroke-width="1.6" opacity=".42" stroke-linecap="round"/></g></svg>