<svg xmlns="http://www.w3.org/2000/svg" viewBox="0 0 760 560" width="760" height="560" aria-hidden="true"><defs>
<radialGradient id="bg" cx="50%" cy="32%" r="80%"><stop offset="0" stop-color="#0e201c"/><stop offset="52%" stop-color="#071110"/><stop offset="1" stop-color="#03080a"/></radialGradient>
<radialGradient id="halo" cx="50%" cy="50%" r="50%"><stop offset="0" stop-color="#9B7CFF" stop-opacity=".38"/><stop offset="55%" stop-color="#9B7CFF" stop-opacity=".09"/><stop offset="1" stop-color="#9B7CFF" stop-opacity="0"/></radialGradient>
<linearGradient id="lf1" x1="0" y1="1" x2=".35" y2="0"><stop offset="0" stop-color="#2b1f56"/><stop offset="1" stop-color="#7d6bd6"/></linearGradient>
<linearGradient id="lf2" x1="0" y1="1" x2=".65" y2="0"><stop offset="0" stop-color="#2b1f56"/><stop offset="1" stop-color="#ab8dff"/></linearGradient>
<linearGradient id="stem" x1="0" y1="1" x2="0" y2="0"><stop offset="0" stop-color="#1b3a30"/><stop offset="1" stop-color="#7d6bd6" stop-opacity=".9"/></linearGradient>
<linearGradient id="trunk" x1="0" y1="1" x2="1" y2="0"><stop offset="0" stop-color="#16302a"/><stop offset="1" stop-color="#7d6bd6" stop-opacity=".7"/></linearGradient>
<linearGradient id="cane" x1="0" y1="0" x2="1" y2="0"><stop offset="0" stop-color="#16342c"/><stop offset=".45" stop-color="#7d6bd6"/><stop offset="1" stop-color="#0f2620"/></linearGradient>
<radialGradient id="core" cx="50%" cy="50%" r="50%"><stop offset="0" stop-color="#9B7CFF"/><stop offset="1" stop-color="#9B7CFF" stop-opacity="0"/></radialGradient>
<linearGradient id="potg" x1="0" y1="0" x2="1" y2="1"><stop offset="0" stop-color="#182422"/><stop offset="1" stop-color="#090f0f"/></linearGradient>
<linearGradient id="floor" x1="0" y1="0" x2="1" y2="0"><stop offset="0" stop-color="#9B7CFF" stop-opacity="0"/><stop offset=".5" stop-color="#9B7CFF" stop-opacity=".55"/><stop offset="1" stop-color="#9B7CFF" stop-opacity="0"/></linearGradient>
</defs><rect width="760" height="560" fill="url(#bg)"/><g opacity=".13" stroke="#9B7CFF" stroke-width=".7"><path d="M0,0 H760"/><path d="M0,44 H760"/><path d="M0,88 H760"/><path d="M0,132 H760"/><path d="M0,176 H760"/><path d="M0,220 H760"/><path d="M0,264 H760"/><path d="M0,308 H760"/><path d="M0,352 H760"/><path d="M0,396 H760"/><path d="M0,440 H760"/><path d="M0,484 H760"/><path d="M0,528 H760"/><path d="M0,0 V560"/><path d="M44,0 V560"/><path d="M88,0 V560"/><path d="M132,0 V560"/><path d="M176,0 V560"/><path d="M220,0 V560"/><path d="M264,0 V560"/><path d="M308,0 V560"/><path d="M352,0 V560"/><path d="M396,0 V560"/><path d="M440,0 V560"/><path d="M484,0 V560"/><path d="M528,0 V560"/><path d="M572,0 V560"/><path d="M616,0 V560"/><path d="M660,0 V560"/><path d="M704,0 V560"/><path d="M748,0 V560"/></g><ellipse cx="319" cy="246" rx="380" ry="342" fill="url(#halo)"/><ellipse cx="380" cy="496" rx="274" ry="17" fill="url(#halo)"/><rect x="61" y="496" width="638" height="2" fill="url(#floor)"/><circle cx="96" cy="120" r="30" fill="url(#core)" opacity="0.32"/><circle cx="664" cy="150" r="22" fill="url(#core)" opacity="0.28"/><g transform="translate(31,19) scale(0.840)"><path d="M242,444 L398,444 L370,556 Q320,566 270,556 Z" fill="url(#potg)"/><path d="M242,444 L249,444 L277,554 L270,554 Z" fill="#eafff2" opacity=".08"/><path d="M398,444 L394,444 L366,554 L370,554 Z" fill="#9B7CFF" opacity=".10"/><rect x="242" y="482" width="156" height="2" fill="#9B7CFF" opacity=".22"/><ellipse cx="320" cy="444" rx="78" ry="18" fill="#08110e"/><ellipse cx="320" cy="444" rx="78" ry="18" fill="none" stroke="#9B7CFF" stroke-width="2" opacity=".6"/><ellipse cx="320" cy="447" rx="68" ry="14" fill="#0c1814"/><rect x="273" y="128" width="95" height="316" rx="47" fill="url(#lf1)"/><path d="M284,166 L284,416" stroke="#08120e" stroke-width="2" opacity=".38" stroke-linecap="round"/><circle cx="284" cy="175" r="1.8" fill="#d8ffee" opacity=".35"/><circle cx="284" cy="234" r="1.8" fill="#d8ffee" opacity=".35"/><circle cx="284" cy="292" r="1.8" fill="#d8ffee" opacity=".35"/><circle cx="284" cy="351" r="1.8" fill="#d8ffee" opacity=".35"/><circle cx="284" cy="409" r="1.8" fill="#d8ffee" opacity=".35"/><path d="M308,166 L308,416" stroke="#08120e" stroke-width="2" opacity=".38" stroke-linecap="round"/><circle cx="308" cy="175" r="1.8" fill="#d8ffee" opacity=".35"/><circle cx="308" cy="234" r="1.8" fill="#d8ffee" opacity=".35"/><circle cx="308" cy="292" r="1.8" fill="#d8ffee" opacity=".35"/><circle cx="308" cy="351" r="1.8" fill="#d8ffee" opacity=".35"/><circle cx="308" cy="409" r="1.8" fill="#d8ffee" opacity=".35"/><path d="M332,166 L332,416" stroke="#08120e" stroke-width="2" opacity=".38" stroke-linecap="round"/><circle cx="332" cy="175" r="1.8" fill="#d8ffee" opacity=".35"/><circle cx="332" cy="234" r="1.8" fill="#d8ffee" opacity=".35"/><circle cx="332" cy="292" r="1.8" fill="#d8ffee" opacity=".35"/><circle cx="332" cy="351" r="1.8" fill="#d8ffee" opacity=".35"/><circle cx="332" cy="409" r="1.8" fill="#d8ffee" opacity=".35"/><path d="M356,166 L356,416" stroke="#08120e" stroke-width="2" opacity=".38" stroke-linecap="round"/><circle cx="356" cy="175" r="1.8" fill="#d8ffee" opacity=".35"/><circle cx="356" cy="234" r="1.8" fill="#d8ffee" opacity=".35"/><circle cx="356" cy="292" r="1.8" fill="#d8ffee" opacity=".35"/><circle cx="356" cy="351" r="1.8" fill="#d8ffee" opacity=".35"/><circle cx="356" cy="409" r="1.8" fill="#d8ffee" opacity=".35"/><rect x="373" y="248" width="57" height="196" rx="28" fill="url(#lf2)"/><path d="M380,271 L380,427" stroke="#08120e" stroke-width="2" opacity=".38" stroke-linecap="round"/><circle cx="380" cy="277" r="1.8" fill="#d8ffee" opacity=".35"/><circle cx="380" cy="313" r="1.8" fill="#d8ffee" opacity=".35"/><circle cx="380" cy="349" r="1.8" fill="#d8ffee" opacity=".35"/><circle cx="380" cy="385" r="1.8" fill="#d8ffee" opacity=".35"/><circle cx="380" cy="422" r="1.8" fill="#d8ffee" opacity=".35"/><path d="M394,271 L394,427" stroke="#08120e" stroke-width="2" opacity=".38" stroke-linecap="round"/><circle cx="394" cy="277" r="1.8" fill="#d8ffee" opacity=".35"/><circle cx="394" cy="313" r="1.8" fill="#d8ffee" opacity=".35"/><circle cx="394" cy="349" r="1.8" fill="#d8ffee" opacity=".35"/><circle cx="394" cy="385" r="1.8" fill="#d8ffee" opacity=".35"/><circle cx="394" cy="422" r="1.8" fill="#d8ffee" opacity=".35"/><path d="M409,271 L409,427" stroke="#08120e" stroke-width="2" opacity=".38" stroke-linecap="round"/><circle cx="409" cy="277" r="1.8" fill="#d8ffee" opacity=".35"/><circle cx="409" cy="313" r="1.8" fill="#d8ffee" opacity=".35"/><circle cx="409" cy="349" r="1.8" fill="#d8ffee" opacity=".35"/><circle cx="409" cy="385" r="1.8" fill="#d8ffee" opacity=".35"/><circle cx="409" cy="422" r="1.8" fill="#d8ffee" opacity=".35"/><path d="M423,271 L423,427" stroke="#08120e" stroke-width="2" opacity=".38" stroke-linecap="round"/><circle cx="423" cy="277" r="1.8" fill="#d8ffee" opacity=".35"/><circle cx="423" cy="313" r="1.8" fill="#d8ffee" opacity=".35"/><circle cx="423" cy="349" r="1.8" fill="#d8ffee" opacity=".35"/><circle cx="423" cy="385" r="1.8" fill="#d8ffee" opacity=".35"/><circle cx="423" cy="422" r="1.8" fill="#d8ffee" opacity=".35"/><path d="M360,280 Q402,267 402,311" fill="none" stroke="url(#lf2)" stroke-width="40" stroke-linecap="round"/><rect x="220" y="305" width="49" height="139" rx="25" fill="url(#lf2)"/><path d="M226,325 L226,429" stroke="#08120e" stroke-width="2" opacity=".38" stroke-linecap="round"/><circle cx="226" cy="330" r="1.8" fill="#d8ffee" opacity=".35"/><circle cx="226" cy="355" r="1.8" fill="#d8ffee" opacity=".35"/><circle cx="226" cy="381" r="1.8" fill="#d8ffee" opacity=".35"/><circle cx="226" cy="407" r="1.8" fill="#d8ffee" opacity=".35"/><circle cx="226" cy="433" r="1.8" fill="#d8ffee" opacity=".35"/><path d="M238,325 L238,429" stroke="#08120e" stroke-width="2" opacity=".38" stroke-linecap="round"/><circle cx="238" cy="330" r="1.8" fill="#d8ffee" opacity=".35"/><circle cx="238" cy="355" r="1.8" fill="#d8ffee" opacity=".35"/><circle cx="238" cy="381" r="1.8" fill="#d8ffee" opacity=".35"/><circle cx="238" cy="407" r="1.8" fill="#d8ffee" opacity=".35"/><circle cx="238" cy="433" r="1.8" fill="#d8ffee" opacity=".35"/><path d="M250,325 L250,429" stroke="#08120e" stroke-width="2" opacity=".38" stroke-linecap="round"/><circle cx="250" cy="330" r="1.8" fill="#d8ffee" opacity=".35"/><circle cx="250" cy="355" r="1.8" fill="#d8ffee" opacity=".35"/><circle cx="250" cy="381" r="1.8" fill="#d8ffee" opacity=".35"/><circle cx="250" cy="407" r="1.8" fill="#d8ffee" opacity=".35"/><circle cx="250" cy="433" r="1.8" fill="#d8ffee" opacity=".35"/><path d="M263,325 L263,429" stroke="#08120e" stroke-width="2" opacity=".38" stroke-linecap="round"/><circle cx="263" cy="330" r="1.8" fill="#d8ffee" opacity=".35"/><circle cx="263" cy="355" r="1.8" fill="#d8ffee" opacity=".35"/><circle cx="263" cy="381" r="1.8" fill="#d8ffee" opacity=".35"/><circle cx="263" cy="407" r="1.8" fill="#d8ffee" opacity=".35"/><circle cx="263" cy="433" r="1.8" fill="#d8ffee" opacity=".35"/><path d="M282,337 Q244,324 244,362" fill="none" stroke="url(#lf2)" stroke-width="34" stroke-linecap="round"/><circle cx="320" cy="126" r="13" fill="url(#core)"/><g><path d="M320,126 C316,120 316,110 320,106 C324,110 324,120 320,126Z" fill="#9B7CFF"/><path d="M320,126 Q320,117 320,107" fill="none" stroke="#08120e" stroke-width="1.6" opacity=".42" stroke-linecap="round"/></g><g><path d="M320,126 C322,119 330,113 336,114 C335,119 327,126 320,126Z" fill="#9B7CFF"/><path d="M320,126 Q327,120 335,114" fill="none" stroke="#08120e" stroke-width="1.6" opacity=".42" stroke-linecap="round"/></g><g><path d="M320,126 C327,123 336,126 339,130 C335,133 325,132 320,126Z" fill="#9B7CFF"/><path d="M320,126 Q329,128 338,130" fill="none" stroke="#08120e" stroke-width="1.6" opacity=".42" stroke-linecap="round"/></g><g><path d="M320,126 C327,130 330,139 329,144 C323,142 319,133 320,126Z" fill="#9B7CFF"/><path d="M320,126 Q324,134 328,143" fill="none" stroke="#08120e" stroke-width="1.6" opacity=".42" stroke-linecap="round"/></g><g><path d="M320,126 C321,133 317,142 311,144 C310,139 313,130 320,126Z" fill="#9B7CFF"/><path d="M320,126 Q316,134 312,143" fill="none" stroke="#08120e" stroke-width="1.6" opacity=".42" stroke-linecap="round"/></g><g><path d="M320,126 C315,132 305,133 301,130 C304,126 313,123 320,126Z" fill="#9B7CFF"/><path d="M320,126 Q311,128 302,130" fill="none" stroke="#08120e" stroke-width="1.6" opacity=".42" stroke-linecap="round"/></g><g><path d="M320,126 C313,126 305,119 304,114 C310,113 318,119 320,126Z" fill="#9B7CFF"/><path d="M320,126 Q313,120 305,114" fill="none" stroke="#08120e" stroke-width="1.6" opacity=".42" stroke-linecap="round"/></g><circle cx="402" cy="247" r="13" fill="url(#core)"/><g><path d="M402,247 C397,241 398,231 402,227 C405,231 406,241 402,247Z" fill="#9B7CFF"/><path d="M402,247 Q402,238 402,228" fill="none" stroke="#08120e" stroke-width="1.6" opacity=".42" stroke-linecap="round"/></g><g><path d="M402,247 C404,240 412,234 417,235 C416,240 409,247 402,247Z" fill="#9B7CFF"/><path d="M402,247 Q409,241 416,235" fill="none" stroke="#08120e" stroke-width="1.6" opacity=".42" stroke-linecap="round"/></g><g><path d="M402,247 C408,244 418,247 421,252 C416,254 406,253 402,247Z" fill="#9B7CFF"/><path d="M402,247 Q411,249 420,251" fill="none" stroke="#08120e" stroke-width="1.6" opacity=".42" stroke-linecap="round"/></g><g><path d="M402,247 C408,251 412,260 410,265 C405,263 400,254 402,247Z" fill="#9B7CFF"/><path d="M402,247 Q406,256 410,264" fill="none" stroke="#08120e" stroke-width="1.6" opacity=".42" stroke-linecap="round"/></g><g><path d="M402,247 C403,254 398,263 393,265 C391,260 395,251 402,247Z" fill="#9B7CFF"/><path d="M402,247 Q397,256 393,264" fill="none" stroke="#08120e" stroke-width="1.6" opacity=".42" stroke-linecap="round"/></g><g><path d="M402,247 C397,253 387,254 382,252 C385,247 395,244 402,247Z" fill="#9B7CFF"/><path d="M402,247 Q392,249 383,251" fill="none" stroke="#08120e" stroke-width="1.6" opacity=".42" stroke-linecap="round"/></g><g><path d="M402,247 C394,247 387,240 386,235 C391,234 400,240 402,247Z" fill="#9B7CFF"/><path d="M402,247 Q394,241 387,235" fill="none" stroke="#08120e" stroke-width="1.6" opacity=".42" stroke-linecap="round"/></g></g><g transform="translate(394,197) scale(0.520)" opacity="0.7"><path d="M245,438 L395,438 L368,556 Q320,566 272,556 Z" fill="url(#potg)"/><path d="M245,438 L252,438 L279,554 L272,554 Z" fill="#eafff2" opacity=".08"/><path d="M395,438 L391,438 L364,554 L368,554 Z" fill="#9B7CFF" opacity=".10"/><rect x="245" y="478" width="150" height="2" fill="#9B7CFF" opacity=".22"/><ellipse cx="320" cy="438" rx="75" ry="17" fill="#08110e"/><ellipse cx="320" cy="438" rx="75" ry="17" fill="none" stroke="#9B7CFF" stroke-width="2" opacity=".6"/><ellipse cx="320" cy="441" rx="65" ry="13" fill="#0c1814"/><g><path d="M310,438 C251,410 169,344 143,308 C184,325 268,389 310,438Z" fill="url(#lf2)"/><path d="M310,438 Q227,383 135,339" fill="none" stroke="#08120e" stroke-width="2.3" opacity=".42" stroke-linecap="round"/></g><g><path d="M312,438 C252,387 172,286 149,237 C192,269 275,368 312,438Z" fill="url(#lf1)"/><path d="M312,438 Q230,348 138,266" fill="none" stroke="#08120e" stroke-width="2.8" opacity=".42" stroke-linecap="round"/></g><g><path d="M315,438 C261,365 198,230 184,171 C223,218 290,351 315,438Z" fill="url(#lf2)"/><path d="M315,438 Q249,315 173,196" fill="none" stroke="#08120e" stroke-width="3.3" opacity=".42" stroke-linecap="round"/></g><g><path d="M317,438 C279,347 244,187 244,120 C274,180 312,339 317,438Z" fill="url(#lf1)"/><path d="M317,438 Q280,289 237,142" fill="none" stroke="#08120e" stroke-width="3.6" opacity=".42" stroke-linecap="round"/></g><g><path d="M320,438 C301,336 304,166 320,98 C336,166 339,336 320,438Z" fill="url(#lf2)"/><path d="M320,438 Q320,278 320,118" fill="none" stroke="#08120e" stroke-width="3.7" opacity=".42" stroke-linecap="round"/></g><g><path d="M323,438 C328,339 366,180 396,120 C396,187 361,347 323,438Z" fill="url(#lf1)"/><path d="M323,438 Q360,289 403,142" fill="none" stroke="#08120e" stroke-width="3.6" opacity=".42" stroke-linecap="round"/></g><g><path d="M325,438 C350,351 417,218 456,171 C442,230 379,365 325,438Z" fill="url(#lf2)"/><path d="M325,438 Q391,315 467,196" fill="none" stroke="#08120e" stroke-width="3.3" opacity=".42" stroke-linecap="round"/></g><g><path d="M328,438 C365,368 448,269 491,237 C468,286 388,387 328,438Z" fill="url(#lf1)"/><path d="M328,438 Q410,348 502,266" fill="none" stroke="#08120e" stroke-width="2.8" opacity=".42" stroke-linecap="round"/></g><g><path d="M330,438 C372,389 456,325 497,308 C471,344 389,410 330,438Z" fill="url(#lf2)"/><path d="M330,438 Q413,383 505,339" fill="none" stroke="#08120e" stroke-width="2.3" opacity=".42" stroke-linecap="round"/></g></g><g transform="translate(-39,244) scale(0.460)" opacity="0.7"><path d="M223,466 L417,466 L409,556 Q320,566 231,556 Z" fill="url(#potg)"/><path d="M223,466 L230,466 L238,554 L231,554 Z" fill="#eafff2" opacity=".08"/><path d="M417,466 L413,466 L405,554 L409,554 Z" fill="#9B7CFF" opacity=".10"/><rect x="223" y="497" width="194" height="2" fill="#9B7CFF" opacity=".22"/><ellipse cx="320" cy="466" rx="97" ry="22" fill="#08110e"/><ellipse cx="320" cy="466" rx="97" ry="22" fill="none" stroke="#9B7CFF" stroke-width="2" opacity=".6"/><ellipse cx="320" cy="469" rx="87" ry="17" fill="#0c1814"/><g><path d="M320,452 C285,402 289,318 320,284 C351,318 355,402 320,452Z" fill="url(#lf1)"/><path d="M320,452 Q324,373 335,294" fill="none" stroke="#08120e" stroke-width="1.8" opacity=".42" stroke-linecap="round"/></g><g><path d="M320,452 C321,390 374,325 419,316 C424,362 378,432 320,452Z" fill="url(#lf1)"/><path d="M320,452 Q369,390 425,333" fill="none" stroke="#08120e" stroke-width="1.8" opacity=".42" stroke-linecap="round"/></g><g><path d="M320,452 C357,403 438,381 480,400 C458,440 379,470 320,452Z" fill="url(#lf1)"/><path d="M320,452 Q396,431 475,417" fill="none" stroke="#08120e" stroke-width="1.8" opacity=".42" stroke-linecap="round"/></g><g><path d="M320,452 C379,434 458,464 480,504 C438,523 357,501 320,452Z" fill="url(#lf1)"/><path d="M320,452 Q394,480 466,515" fill="none" stroke="#08120e" stroke-width="1.8" opacity=".42" stroke-linecap="round"/></g><g><path d="M320,452 C378,472 424,542 419,588 C374,579 321,514 320,452Z" fill="url(#lf1)"/><path d="M320,452 Q363,518 401,588" fill="none" stroke="#08120e" stroke-width="1.8" opacity=".42" stroke-linecap="round"/></g><g><path d="M320,452 C355,502 351,586 320,620 C289,586 285,502 320,452Z" fill="url(#lf1)"/><path d="M320,452 Q316,531 305,610" fill="none" stroke="#08120e" stroke-width="1.8" opacity=".42" stroke-linecap="round"/></g><g><path d="M320,452 C319,514 266,579 221,588 C216,542 262,472 320,452Z" fill="url(#lf1)"/><path d="M320,452 Q271,514 215,571" fill="none" stroke="#08120e" stroke-width="1.8" opacity=".42" stroke-linecap="round"/></g><g><path d="M320,452 C283,501 202,523 160,504 C182,464 261,434 320,452Z" fill="url(#lf1)"/><path d="M320,452 Q244,473 165,487" fill="none" stroke="#08120e" stroke-width="1.8" opacity=".42" stroke-linecap="round"/></g><g><path d="M320,452 C261,470 182,440 160,400 C202,381 283,403 320,452Z" fill="url(#lf1)"/><path d="M320,452 Q246,424 174,389" fill="none" stroke="#08120e" stroke-width="1.8" opacity=".42" stroke-linecap="round"/></g><g><path d="M320,452 C262,432 216,362 221,316 C266,325 319,390 320,452Z" fill="url(#lf1)"/><path d="M320,452 Q277,386 239,316" fill="none" stroke="#08120e" stroke-width="1.8" opacity=".42" stroke-linecap="round"/></g><g><path d="M320,452 C309,403 338,341 372,326 C386,361 362,425 320,452Z" fill="url(#lf2)"/><path d="M320,452 Q347,394 380,338" fill="none" stroke="#08120e" stroke-width="1.6" opacity=".42" stroke-linecap="round"/></g><g><path d="M320,452 C347,410 411,386 446,400 C431,434 369,463 320,452Z" fill="url(#lf2)"/><path d="M320,452 Q381,430 444,414" fill="none" stroke="#08120e" stroke-width="1.6" opacity=".42" stroke-linecap="round"/></g><g><path d="M320,452 C369,441 431,470 446,504 C411,518 347,494 320,452Z" fill="url(#lf2)"/><path d="M320,452 Q378,479 434,512" fill="none" stroke="#08120e" stroke-width="1.6" opacity=".42" stroke-linecap="round"/></g><g><path d="M320,452 C362,479 386,543 372,578 C338,563 309,501 320,452Z" fill="url(#lf2)"/><path d="M320,452 Q342,513 358,576" fill="none" stroke="#08120e" stroke-width="1.6" opacity=".42" stroke-linecap="round"/></g><g><path d="M320,452 C331,501 302,563 268,578 C254,543 278,479 320,452Z" fill="url(#lf2)"/><path d="M320,452 Q293,510 260,566" fill="none" stroke="#08120e" stroke-width="1.6" opacity=".42" stroke-linecap="round"/></g><g><path d="M320,452 C293,494 229,518 194,504 C209,470 271,441 320,452Z" fill="url(#lf2)"/><path d="M320,452 Q259,474 196,490" fill="none" stroke="#08120e" stroke-width="1.6" opacity=".42" stroke-linecap="round"/></g><g><path d="M320,452 C271,463 209,434 194,400 C229,386 293,410 320,452Z" fill="url(#lf2)"/><path d="M320,452 Q262,425 206,392" fill="none" stroke="#08120e" stroke-width="1.6" opacity=".42" stroke-linecap="round"/></g><g><path d="M320,452 C278,425 254,361 268,326 C302,341 331,403 320,452Z" fill="url(#lf2)"/><path d="M320,452 Q298,391 282,328" fill="none" stroke="#08120e" stroke-width="1.6" opacity=".42" stroke-linecap="round"/></g><g><path d="M320,452 C336,417 383,393 412,399 C403,427 359,455 320,452Z" fill="url(#lf1)"/><path d="M320,452 Q364,429 411,410" fill="none" stroke="#08120e" stroke-width="1.6" opacity=".42" stroke-linecap="round"/></g><g><path d="M320,452 C359,449 403,477 412,505 C383,511 336,487 320,452Z" fill="url(#lf1)"/><path d="M320,452 Q362,479 401,510" fill="none" stroke="#08120e" stroke-width="1.6" opacity=".42" stroke-linecap="round"/></g><g><path d="M320,452 C342,484 340,537 320,558 C300,537 298,484 320,452Z" fill="url(#lf1)"/><path d="M320,452 Q318,502 311,551" fill="none" stroke="#08120e" stroke-width="1.6" opacity=".42" stroke-linecap="round"/></g><g><path d="M320,452 C304,487 257,511 228,505 C237,477 281,449 320,452Z" fill="url(#lf1)"/><path d="M320,452 Q276,475 229,494" fill="none" stroke="#08120e" stroke-width="1.6" opacity=".42" stroke-linecap="round"/></g><g><path d="M320,452 C281,455 237,427 228,399 C257,393 304,417 320,452Z" fill="url(#lf1)"/><path d="M320,452 Q278,425 239,394" fill="none" stroke="#08120e" stroke-width="1.6" opacity=".42" stroke-linecap="round"/></g><g><path d="M320,452 C298,420 300,367 320,346 C340,367 342,420 320,452Z" fill="url(#lf1)"/><path d="M320,452 Q322,402 329,353" fill="none" stroke="#08120e" stroke-width="1.6" opacity=".42" stroke-linecap="round"/></g><g><path d="M320,452 C347,457 372,484 373,505 C352,504 325,479 320,452Z" fill="url(#lf2)"/><path d="M320,452 Q344,478 365,506" fill="none" stroke="#08120e" stroke-width="1.6" opacity=".42" stroke-linecap="round"/></g><g><path d="M320,452 C315,479 288,504 267,505 C268,484 293,457 320,452Z" fill="url(#lf2)"/><path d="M320,452 Q294,476 266,497" fill="none" stroke="#08120e" stroke-width="1.6" opacity=".42" stroke-linecap="round"/></g><g><path d="M320,452 C293,447 268,420 267,399 C288,400 315,425 320,452Z" fill="url(#lf2)"/><path d="M320,452 Q296,426 275,398" fill="none" stroke="#08120e" stroke-width="1.6" opacity=".42" stroke-linecap="round"/></g><g><path d="M320,452 C325,425 352,400 373,399 C372,420 347,447 320,452Z" fill="url(#lf2)"/><path d="M320,452 Q346,428 374,407" fill="none" stroke="#08120e" stroke-width="1.6" opacity=".42" stroke-linecap="round"/></g><circle cx="320" cy="452" r="17" fill="url(#core)"/></g></svg>