<svg xmlns="http://www.w3.org/2000/svg" viewBox="0 0 640 640" width="640" height="640" aria-hidden="true"><defs>
<radialGradient id="bg" cx="50%" cy="32%" r="80%"><stop offset="0" stop-color="#0e201c"/><stop offset="52%" stop-color="#071110"/><stop offset="1" stop-color="#03080a"/></radialGradient>
<radialGradient id="halo" cx="50%" cy="50%" r="50%"><stop offset="0" stop-color="#B8FF3C" stop-opacity=".38"/><stop offset="55%" stop-color="#B8FF3C" stop-opacity=".09"/><stop offset="1" stop-color="#B8FF3C" stop-opacity="0"/></radialGradient>
<linearGradient id="lf1" x1="0" y1="1" x2=".35" y2="0"><stop offset="0" stop-color="#1d4a1c"/><stop offset="1" stop-color="#93da3c"/></linearGradient>
<linearGradient id="lf2" x1="0" y1="1" x2=".65" y2="0"><stop offset="0" stop-color="#1d4a1c"/><stop offset="1" stop-color="#c9ff52"/></linearGradient>
<linearGradient id="stem" x1="0" y1="1" x2="0" y2="0"><stop offset="0" stop-color="#1b3a30"/><stop offset="1" stop-color="#93da3c" stop-opacity=".9"/></linearGradient>
<linearGradient id="trunk" x1="0" y1="1" x2="1" y2="0"><stop offset="0" stop-color="#16302a"/><stop offset="1" stop-color="#93da3c" stop-opacity=".7"/></linearGradient>
<linearGradient id="cane" x1="0" y1="0" x2="1" y2="0"><stop offset="0" stop-color="#16342c"/><stop offset=".45" stop-color="#93da3c"/><stop offset="1" stop-color="#0f2620"/></linearGradient>
<radialGradient id="core" cx="50%" cy="50%" r="50%"><stop offset="0" stop-color="#B8FF3C"/><stop offset="1" stop-color="#B8FF3C" stop-opacity="0"/></radialGradient>
<linearGradient id="potg" x1="0" y1="0" x2="1" y2="1"><stop offset="0" stop-color="#182422"/><stop offset="1" stop-color="#090f0f"/></linearGradient>
<linearGradient id="floor" x1="0" y1="0" x2="1" y2="0"><stop offset="0" stop-color="#B8FF3C" stop-opacity="0"/><stop offset=".5" stop-color="#B8FF3C" stop-opacity=".55"/><stop offset="1" stop-color="#B8FF3C" stop-opacity="0"/></linearGradient>
</defs><rect width="640" height="640" fill="url(#bg)"/><g opacity=".14" stroke="#B8FF3C" stroke-width=".7"><path d="M0,0 H640"/><path d="M0,44 H640"/><path d="M0,88 H640"/><path d="M0,132 H640"/><path d="M0,176 H640"/><path d="M0,220 H640"/><path d="M0,264 H640"/><path d="M0,308 H640"/><path d="M0,352 H640"/><path d="M0,396 H640"/><path d="M0,440 H640"/><path d="M0,484 H640"/><path d="M0,528 H640"/><path d="M0,572 H640"/><path d="M0,616 H640"/><path d="M0,0 V640"/><path d="M44,0 V640"/><path d="M88,0 V640"/><path d="M132,0 V640"/><path d="M176,0 V640"/><path d="M220,0 V640"/><path d="M264,0 V640"/><path d="M308,0 V640"/><path d="M352,0 V640"/><path d="M396,0 V640"/><path d="M440,0 V640"/><path d="M484,0 V640"/><path d="M528,0 V640"/><path d="M572,0 V640"/><path d="M616,0 V640"/></g><ellipse cx="320" cy="256" rx="294" ry="294" fill="url(#halo)"/><ellipse cx="320" cy="556" rx="218" ry="18" fill="url(#halo)"/><rect x="77" y="556" width="486" height="2" fill="url(#floor)"/><path d="M246,440 L394,440 L367,556 Q320,566 273,556 Z" fill="url(#potg)"/><path d="M246,440 L253,440 L280,554 L273,554 Z" fill="#eafff2" opacity=".08"/><path d="M394,440 L390,440 L363,554 L367,554 Z" fill="#B8FF3C" opacity=".10"/><rect x="246" y="479" width="148" height="2" fill="#B8FF3C" opacity=".22"/><ellipse cx="320" cy="440" rx="74" ry="17" fill="#08110e"/><ellipse cx="320" cy="440" rx="74" ry="17" fill="none" stroke="#B8FF3C" stroke-width="2" opacity=".6"/><ellipse cx="320" cy="443" rx="64" ry="13" fill="#0c1814"/><path d="M320,442 Q276,370 228,301" fill="none" stroke="url(#stem)" stroke-width="6" stroke-linecap="round"/><g><path d="M208,266 C185,291 163,327 180,352 C161,297 120,263 129,215 C131,179 142,167 144,156 C155,159 171,156 203,172 C249,188 258,241 296,285 C284,257 241,259 208,266Z" fill="url(#lf2)"/><path d="M228,301 Q185,235 134,173" fill="none" stroke="#08120e" stroke-width="1.8" opacity=".42" stroke-linecap="round"/><path d="M213,275 L147,274" stroke="#08120e" stroke-width="1.4" opacity="0.32" fill="none" stroke-linecap="round"/><path d="M213,275 L245,218" stroke="#08120e" stroke-width="1.4" opacity="0.32" fill="none" stroke-linecap="round"/><path d="M200,256 L125,255" stroke="#08120e" stroke-width="1.4" opacity="0.32" fill="none" stroke-linecap="round"/><path d="M200,256 L236,191" stroke="#08120e" stroke-width="1.4" opacity="0.32" fill="none" stroke-linecap="round"/><path d="M187,237 L107,236" stroke="#08120e" stroke-width="1.4" opacity="0.32" fill="none" stroke-linecap="round"/><path d="M187,237 L225,168" stroke="#08120e" stroke-width="1.4" opacity="0.32" fill="none" stroke-linecap="round"/><path d="M173,219 L102,218" stroke="#08120e" stroke-width="1.4" opacity="0.32" fill="none" stroke-linecap="round"/><path d="M173,219 L207,157" stroke="#08120e" stroke-width="1.4" opacity="0.32" fill="none" stroke-linecap="round"/><path d="M158,201 L97,200" stroke="#08120e" stroke-width="1.4" opacity="0.32" fill="none" stroke-linecap="round"/><path d="M158,201 L188,147" stroke="#08120e" stroke-width="1.4" opacity="0.32" fill="none" stroke-linecap="round"/><path d="M143,183 L90,182" stroke="#08120e" stroke-width="1.4" opacity="0.32" fill="none" stroke-linecap="round"/><path d="M143,183 L169,137" stroke="#08120e" stroke-width="1.4" opacity="0.32" fill="none" stroke-linecap="round"/></g><path d="M320,442 Q306,345 290,248" fill="none" stroke="url(#stem)" stroke-width="6" stroke-linecap="round"/><g><path d="M284,204 C251,220 214,248 222,280 C224,216 197,164 225,118 C242,82 257,74 264,64 C274,72 291,75 316,106 C356,141 344,199 365,260 C363,227 319,210 284,204Z" fill="url(#lf1)"/><path d="M290,248 Q277,162 260,76" fill="none" stroke="#08120e" stroke-width="2.0" opacity=".42" stroke-linecap="round"/><path d="M285,215 L220,188" stroke="#08120e" stroke-width="1.4" opacity="0.32" fill="none" stroke-linecap="round"/><path d="M285,215 L340,171" stroke="#08120e" stroke-width="1.4" opacity="0.32" fill="none" stroke-linecap="round"/><path d="M281,190 L207,159" stroke="#08120e" stroke-width="1.4" opacity="0.32" fill="none" stroke-linecap="round"/><path d="M281,190 L344,140" stroke="#08120e" stroke-width="1.4" opacity="0.32" fill="none" stroke-linecap="round"/><path d="M277,165 L198,132" stroke="#08120e" stroke-width="1.4" opacity="0.32" fill="none" stroke-linecap="round"/><path d="M277,165 L344,111" stroke="#08120e" stroke-width="1.4" opacity="0.32" fill="none" stroke-linecap="round"/><path d="M273,140 L203,111" stroke="#08120e" stroke-width="1.4" opacity="0.32" fill="none" stroke-linecap="round"/><path d="M273,140 L332,93" stroke="#08120e" stroke-width="1.4" opacity="0.32" fill="none" stroke-linecap="round"/><path d="M268,115 L207,90" stroke="#08120e" stroke-width="1.4" opacity="0.32" fill="none" stroke-linecap="round"/><path d="M268,115 L320,74" stroke="#08120e" stroke-width="1.4" opacity="0.32" fill="none" stroke-linecap="round"/><path d="M263,90 L211,68" stroke="#08120e" stroke-width="1.4" opacity="0.32" fill="none" stroke-linecap="round"/><path d="M263,90 L308,55" stroke="#08120e" stroke-width="1.4" opacity="0.32" fill="none" stroke-linecap="round"/></g><path d="M320,442 Q347,352 376,263" fill="none" stroke="url(#stem)" stroke-width="6" stroke-linecap="round"/><g><path d="M388,221 C353,222 308,232 303,264 C330,209 326,152 369,124 C398,98 415,98 425,91 C430,102 444,112 456,148 C477,195 444,241 438,302 C450,273 417,241 388,221Z" fill="url(#lf2)"/><path d="M376,263 Q401,183 431,104" fill="none" stroke="#08120e" stroke-width="2.0" opacity=".42" stroke-linecap="round"/><path d="M385,232 L338,181" stroke="#08120e" stroke-width="1.4" opacity="0.32" fill="none" stroke-linecap="round"/><path d="M385,232 L452,214" stroke="#08120e" stroke-width="1.4" opacity="0.32" fill="none" stroke-linecap="round"/><path d="M393,209 L339,151" stroke="#08120e" stroke-width="1.4" opacity="0.32" fill="none" stroke-linecap="round"/><path d="M393,209 L469,189" stroke="#08120e" stroke-width="1.4" opacity="0.32" fill="none" stroke-linecap="round"/><path d="M400,186 L343,125" stroke="#08120e" stroke-width="1.4" opacity="0.32" fill="none" stroke-linecap="round"/><path d="M400,186 L481,164" stroke="#08120e" stroke-width="1.4" opacity="0.32" fill="none" stroke-linecap="round"/><path d="M408,163 L358,109" stroke="#08120e" stroke-width="1.4" opacity="0.32" fill="none" stroke-linecap="round"/><path d="M408,163 L480,144" stroke="#08120e" stroke-width="1.4" opacity="0.32" fill="none" stroke-linecap="round"/><path d="M417,140 L372,93" stroke="#08120e" stroke-width="1.4" opacity="0.32" fill="none" stroke-linecap="round"/><path d="M417,140 L479,123" stroke="#08120e" stroke-width="1.4" opacity="0.32" fill="none" stroke-linecap="round"/><path d="M425,117 L387,77" stroke="#08120e" stroke-width="1.4" opacity="0.32" fill="none" stroke-linecap="round"/><path d="M425,117 L479,103" stroke="#08120e" stroke-width="1.4" opacity="0.32" fill="none" stroke-linecap="round"/></g><path d="M320,442 Q373,388 432,338" fill="none" stroke="url(#stem)" stroke-width="6" stroke-linecap="round"/><g><path d="M456,311 C428,298 390,288 374,310 C416,279 434,233 478,228 C510,220 523,226 533,225 C534,235 541,248 536,281 C536,325 493,348 465,393 C486,374 472,337 456,311Z" fill="url(#lf1)"/><path d="M432,338 Q484,289 547,250" fill="none" stroke="#08120e" stroke-width="1.7" opacity=".42" stroke-linecap="round"/><path d="M451,318 L433,260" stroke="#08120e" stroke-width="1.4" opacity="0.32" fill="none" stroke-linecap="round"/><path d="M451,318 L510,330" stroke="#08120e" stroke-width="1.4" opacity="0.32" fill="none" stroke-linecap="round"/><path d="M466,304 L446,239" stroke="#08120e" stroke-width="1.4" opacity="0.32" fill="none" stroke-linecap="round"/><path d="M466,304 L534,318" stroke="#08120e" stroke-width="1.4" opacity="0.32" fill="none" stroke-linecap="round"/><path d="M482,291 L461,221" stroke="#08120e" stroke-width="1.4" opacity="0.32" fill="none" stroke-linecap="round"/><path d="M482,291 L554,305" stroke="#08120e" stroke-width="1.4" opacity="0.32" fill="none" stroke-linecap="round"/><path d="M499,279 L480,217" stroke="#08120e" stroke-width="1.4" opacity="0.32" fill="none" stroke-linecap="round"/><path d="M499,279 L563,291" stroke="#08120e" stroke-width="1.4" opacity="0.32" fill="none" stroke-linecap="round"/><path d="M517,267 L500,213" stroke="#08120e" stroke-width="1.4" opacity="0.32" fill="none" stroke-linecap="round"/><path d="M517,267 L573,278" stroke="#08120e" stroke-width="1.4" opacity="0.32" fill="none" stroke-linecap="round"/><path d="M536,256 L521,209" stroke="#08120e" stroke-width="1.4" opacity="0.32" fill="none" stroke-linecap="round"/><path d="M536,256 L583,265" stroke="#08120e" stroke-width="1.4" opacity="0.32" fill="none" stroke-linecap="round"/></g><path d="M320,442 Q264,407 203,379" fill="none" stroke="url(#stem)" stroke-width="6" stroke-linecap="round"/><g><path d="M175,359 C166,387 160,423 182,436 C149,400 106,389 97,348 C87,319 91,306 89,297 C99,295 110,287 141,288 C182,284 206,321 250,342 C232,325 199,342 175,359Z" fill="url(#lf2)"/><path d="M203,379 Q144,347 75,330" fill="none" stroke="#08120e" stroke-width="1.6" opacity=".42" stroke-linecap="round"/><path d="M181,365 L129,388" stroke="#08120e" stroke-width="1.4" opacity="0.32" fill="none" stroke-linecap="round"/><path d="M181,365 L187,308" stroke="#08120e" stroke-width="1.4" opacity="0.32" fill="none" stroke-linecap="round"/><path d="M164,356 L105,382" stroke="#08120e" stroke-width="1.4" opacity="0.32" fill="none" stroke-linecap="round"/><path d="M164,356 L170,292" stroke="#08120e" stroke-width="1.4" opacity="0.32" fill="none" stroke-linecap="round"/><path d="M147,348 L83,375" stroke="#08120e" stroke-width="1.4" opacity="0.32" fill="none" stroke-linecap="round"/><path d="M147,348 L153,280" stroke="#08120e" stroke-width="1.4" opacity="0.32" fill="none" stroke-linecap="round"/><path d="M128,342 L72,366" stroke="#08120e" stroke-width="1.4" opacity="0.32" fill="none" stroke-linecap="round"/><path d="M128,342 L133,281" stroke="#08120e" stroke-width="1.4" opacity="0.32" fill="none" stroke-linecap="round"/><path d="M108,336 L59,357" stroke="#08120e" stroke-width="1.4" opacity="0.32" fill="none" stroke-linecap="round"/><path d="M108,336 L113,283" stroke="#08120e" stroke-width="1.4" opacity="0.32" fill="none" stroke-linecap="round"/><path d="M88,332 L46,350" stroke="#08120e" stroke-width="1.4" opacity="0.32" fill="none" stroke-linecap="round"/><path d="M88,332 L92,286" stroke="#08120e" stroke-width="1.4" opacity="0.32" fill="none" stroke-linecap="round"/></g></svg>