<svg xmlns="http://www.w3.org/2000/svg" viewBox="0 0 640 640" width="640" height="640" aria-hidden="true"><defs>
<radialGradient id="bg" cx="50%" cy="32%" r="80%"><stop offset="0" stop-color="#0e201c"/><stop offset="52%" stop-color="#071110"/><stop offset="1" stop-color="#03080a"/></radialGradient>
<radialGradient id="halo" cx="50%" cy="50%" r="50%"><stop offset="0" stop-color="#7CFFC4" stop-opacity=".38"/><stop offset="55%" stop-color="#7CFFC4" stop-opacity=".09"/><stop offset="1" stop-color="#7CFFC4" stop-opacity="0"/></radialGradient>
<linearGradient id="lf1" x1="0" y1="1" x2=".35" y2="0"><stop offset="0" stop-color="#0f4436"/><stop offset="1" stop-color="#3fbe86"/></linearGradient>
<linearGradient id="lf2" x1="0" y1="1" x2=".65" y2="0"><stop offset="0" stop-color="#0f4436"/><stop offset="1" stop-color="#2ad6a5"/></linearGradient>
<linearGradient id="stem" x1="0" y1="1" x2="0" y2="0"><stop offset="0" stop-color="#1b3a30"/><stop offset="1" stop-color="#3fbe86" stop-opacity=".9"/></linearGradient>
<linearGradient id="trunk" x1="0" y1="1" x2="1" y2="0"><stop offset="0" stop-color="#16302a"/><stop offset="1" stop-color="#3fbe86" stop-opacity=".7"/></linearGradient>
<linearGradient id="cane" x1="0" y1="0" x2="1" y2="0"><stop offset="0" stop-color="#16342c"/><stop offset=".45" stop-color="#3fbe86"/><stop offset="1" stop-color="#0f2620"/></linearGradient>
<radialGradient id="core" cx="50%" cy="50%" r="50%"><stop offset="0" stop-color="#7CFFC4"/><stop offset="1" stop-color="#7CFFC4" stop-opacity="0"/></radialGradient>
<linearGradient id="potg" x1="0" y1="0" x2="1" y2="1"><stop offset="0" stop-color="#182422"/><stop offset="1" stop-color="#090f0f"/></linearGradient>
<linearGradient id="floor" x1="0" y1="0" x2="1" y2="0"><stop offset="0" stop-color="#7CFFC4" stop-opacity="0"/><stop offset=".5" stop-color="#7CFFC4" stop-opacity=".55"/><stop offset="1" stop-color="#7CFFC4" stop-opacity="0"/></linearGradient>
</defs><rect width="640" height="640" fill="url(#bg)"/><g opacity=".14" stroke="#7CFFC4" stroke-width=".7"><path d="M0,0 H640"/><path d="M0,44 H640"/><path d="M0,88 H640"/><path d="M0,132 H640"/><path d="M0,176 H640"/><path d="M0,220 H640"/><path d="M0,264 H640"/><path d="M0,308 H640"/><path d="M0,352 H640"/><path d="M0,396 H640"/><path d="M0,440 H640"/><path d="M0,484 H640"/><path d="M0,528 H640"/><path d="M0,572 H640"/><path d="M0,616 H640"/><path d="M0,0 V640"/><path d="M44,0 V640"/><path d="M88,0 V640"/><path d="M132,0 V640"/><path d="M176,0 V640"/><path d="M220,0 V640"/><path d="M264,0 V640"/><path d="M308,0 V640"/><path d="M352,0 V640"/><path d="M396,0 V640"/><path d="M440,0 V640"/><path d="M484,0 V640"/><path d="M528,0 V640"/><path d="M572,0 V640"/><path d="M616,0 V640"/></g><ellipse cx="320" cy="256" rx="294" ry="294" fill="url(#halo)"/><ellipse cx="320" cy="556" rx="218" ry="18" fill="url(#halo)"/><rect x="77" y="556" width="486" height="2" fill="url(#floor)"/><path d="M244,434 L396,434 L369,556 Q320,566 271,556 Z" fill="url(#potg)"/><path d="M244,434 L251,434 L278,554 L271,554 Z" fill="#eafff2" opacity=".08"/><path d="M396,434 L392,434 L365,554 L369,554 Z" fill="#7CFFC4" opacity=".10"/><rect x="244" y="475" width="152" height="2" fill="#7CFFC4" opacity=".22"/><ellipse cx="320" cy="434" rx="76" ry="17" fill="#08110e"/><ellipse cx="320" cy="434" rx="76" ry="17" fill="none" stroke="#7CFFC4" stroke-width="2" opacity=".6"/><ellipse cx="320" cy="437" rx="66" ry="13" fill="#0c1814"/><path d="M320,438 Q272,412 221,392" fill="none" stroke="url(#stem)" stroke-width="7" stroke-linecap="round"/><mask id="m1"><rect x="0" y="0" width="900" height="1100" fill="#fff"/><ellipse cx="162" cy="392" rx="20" ry="6" fill="#000" transform="rotate(-124 162 392)"/><ellipse cx="192" cy="344" rx="20" ry="6" fill="#000" transform="rotate(8 192 344)"/><ellipse cx="132" cy="380" rx="21" ry="6" fill="#000" transform="rotate(-124 132 380)"/><ellipse cx="162" cy="331" rx="21" ry="6" fill="#000" transform="rotate(8 162 331)"/><ellipse cx="101" cy="369" rx="18" ry="6" fill="#000" transform="rotate(-124 101 369)"/><ellipse cx="131" cy="321" rx="18" ry="6" fill="#000" transform="rotate(8 131 321)"/><path d="M179,390 L127,464 L135,469Z" fill="#000"/><path d="M199,358 L243,279 L251,284Z" fill="#000"/><path d="M147,375 L94,449 L103,455Z" fill="#000"/><path d="M166,344 L210,264 L219,269Z" fill="#000"/><path d="M113,363 L61,437 L69,442Z" fill="#000"/><path d="M132,331 L176,252 L185,257Z" fill="#000"/></mask><g mask="url(#m1)"><path d="M221,392 C160,458 65,396 79,303 C155,250 254,309 221,392Z" fill="url(#lf1)"/><path d="M221,392 Q150,357 71,334" fill="none" stroke="#08120e" stroke-width="1.8" opacity=".42" stroke-linecap="round"/><path d="M195,377 L130,410" stroke="#08120e" stroke-width="1.4" opacity="0.32" fill="none" stroke-linecap="round"/><path d="M195,377 L196,304" stroke="#08120e" stroke-width="1.4" opacity="0.32" fill="none" stroke-linecap="round"/><path d="M169,365 L93,403" stroke="#08120e" stroke-width="1.4" opacity="0.32" fill="none" stroke-linecap="round"/><path d="M169,365 L171,280" stroke="#08120e" stroke-width="1.4" opacity="0.32" fill="none" stroke-linecap="round"/><path d="M142,354 L69,392" stroke="#08120e" stroke-width="1.4" opacity="0.32" fill="none" stroke-linecap="round"/><path d="M142,354 L144,271" stroke="#08120e" stroke-width="1.4" opacity="0.32" fill="none" stroke-linecap="round"/><path d="M114,345 L51,377" stroke="#08120e" stroke-width="1.4" opacity="0.32" fill="none" stroke-linecap="round"/><path d="M114,345 L116,274" stroke="#08120e" stroke-width="1.4" opacity="0.32" fill="none" stroke-linecap="round"/><path d="M85,337 L33,364" stroke="#08120e" stroke-width="1.4" opacity="0.32" fill="none" stroke-linecap="round"/><path d="M85,337 L87,279" stroke="#08120e" stroke-width="1.4" opacity="0.32" fill="none" stroke-linecap="round"/></g><path d="M320,438 Q368,412 419,392" fill="none" stroke="url(#stem)" stroke-width="7" stroke-linecap="round"/><mask id="m2"><rect x="0" y="0" width="900" height="1100" fill="#fff"/><ellipse cx="447" cy="345" rx="20" ry="6" fill="#000" transform="rotate(-8 447 345)"/><ellipse cx="477" cy="393" rx="20" ry="6" fill="#000" transform="rotate(124 477 393)"/><ellipse cx="476" cy="332" rx="21" ry="6" fill="#000" transform="rotate(-8 476 332)"/><ellipse cx="506" cy="381" rx="21" ry="6" fill="#000" transform="rotate(124 506 381)"/><ellipse cx="507" cy="322" rx="18" ry="6" fill="#000" transform="rotate(-8 507 322)"/><ellipse cx="537" cy="371" rx="18" ry="6" fill="#000" transform="rotate(124 537 371)"/><path d="M440,359 L397,279 L388,285Z" fill="#000"/><path d="M460,390 L512,465 L504,470Z" fill="#000"/><path d="M472,345 L428,265 L420,270Z" fill="#000"/><path d="M492,376 L544,450 L536,455Z" fill="#000"/><path d="M505,333 L461,253 L453,258Z" fill="#000"/><path d="M525,364 L577,438 L569,444Z" fill="#000"/></mask><g mask="url(#m2)"><path d="M419,392 C386,309 482,252 558,305 C573,397 479,458 419,392Z" fill="url(#lf1)"/><path d="M419,392 Q488,358 565,336" fill="none" stroke="#08120e" stroke-width="1.8" opacity=".42" stroke-linecap="round"/><path d="M444,378 L443,305" stroke="#08120e" stroke-width="1.4" opacity="0.32" fill="none" stroke-linecap="round"/><path d="M444,378 L509,411" stroke="#08120e" stroke-width="1.4" opacity="0.32" fill="none" stroke-linecap="round"/><path d="M470,365 L468,280" stroke="#08120e" stroke-width="1.4" opacity="0.32" fill="none" stroke-linecap="round"/><path d="M470,365 L545,404" stroke="#08120e" stroke-width="1.4" opacity="0.32" fill="none" stroke-linecap="round"/><path d="M496,355 L494,272" stroke="#08120e" stroke-width="1.4" opacity="0.32" fill="none" stroke-linecap="round"/><path d="M496,355 L570,393" stroke="#08120e" stroke-width="1.4" opacity="0.32" fill="none" stroke-linecap="round"/><path d="M523,346 L522,275" stroke="#08120e" stroke-width="1.4" opacity="0.32" fill="none" stroke-linecap="round"/><path d="M523,346 L586,378" stroke="#08120e" stroke-width="1.4" opacity="0.32" fill="none" stroke-linecap="round"/><path d="M552,339 L551,281" stroke="#08120e" stroke-width="1.4" opacity="0.32" fill="none" stroke-linecap="round"/><path d="M552,339 L604,365" stroke="#08120e" stroke-width="1.4" opacity="0.32" fill="none" stroke-linecap="round"/></g><path d="M320,438 Q288,362 253,286" fill="none" stroke="url(#stem)" stroke-width="7" stroke-linecap="round"/><mask id="m3"><rect x="0" y="0" width="900" height="1100" fill="#fff"/><ellipse cx="204" cy="246" rx="20" ry="6" fill="#000" transform="rotate(-88 204 246)"/><ellipse cx="257" cy="224" rx="20" ry="6" fill="#000" transform="rotate(44 257 224)"/><ellipse cx="189" cy="214" rx="21" ry="6" fill="#000" transform="rotate(-88 189 214)"/><ellipse cx="242" cy="192" rx="21" ry="6" fill="#000" transform="rotate(44 242 192)"/><ellipse cx="173" cy="182" rx="18" ry="6" fill="#000" transform="rotate(-88 173 182)"/><ellipse cx="226" cy="161" rx="18" ry="6" fill="#000" transform="rotate(44 226 161)"/><path d="M220,255 L133,284 L138,295Z" fill="#000"/><path d="M254,242 L336,202 L340,213Z" fill="#000"/><path d="M203,220 L117,249 L121,259Z" fill="#000"/><path d="M237,206 L319,167 L324,177Z" fill="#000"/><path d="M186,185 L99,214 L104,224Z" fill="#000"/><path d="M220,171 L302,132 L306,142Z" fill="#000"/></mask><g mask="url(#m3)"><path d="M253,286 C164,302 119,184 183,114 C278,120 327,236 253,286Z" fill="url(#lf1)"/><path d="M253,286 Q217,206 176,129" fill="none" stroke="#08120e" stroke-width="2.0" opacity=".42" stroke-linecap="round"/><path d="M240,255 L168,244" stroke="#08120e" stroke-width="1.4" opacity="0.32" fill="none" stroke-linecap="round"/><path d="M240,255 L284,197" stroke="#08120e" stroke-width="1.4" opacity="0.32" fill="none" stroke-linecap="round"/><path d="M227,226 L143,213" stroke="#08120e" stroke-width="1.4" opacity="0.32" fill="none" stroke-linecap="round"/><path d="M227,226 L278,159" stroke="#08120e" stroke-width="1.4" opacity="0.32" fill="none" stroke-linecap="round"/><path d="M213,198 L131,185" stroke="#08120e" stroke-width="1.4" opacity="0.32" fill="none" stroke-linecap="round"/><path d="M213,198 L263,132" stroke="#08120e" stroke-width="1.4" opacity="0.32" fill="none" stroke-linecap="round"/><path d="M198,170 L129,159" stroke="#08120e" stroke-width="1.4" opacity="0.32" fill="none" stroke-linecap="round"/><path d="M198,170 L241,113" stroke="#08120e" stroke-width="1.4" opacity="0.32" fill="none" stroke-linecap="round"/><path d="M183,142 L125,133" stroke="#08120e" stroke-width="1.4" opacity="0.32" fill="none" stroke-linecap="round"/><path d="M183,142 L218,95" stroke="#08120e" stroke-width="1.4" opacity="0.32" fill="none" stroke-linecap="round"/></g><path d="M320,438 Q354,366 390,296" fill="none" stroke="url(#stem)" stroke-width="7" stroke-linecap="round"/><mask id="m4"><rect x="0" y="0" width="900" height="1100" fill="#fff"/><ellipse cx="387" cy="236" rx="20" ry="6" fill="#000" transform="rotate(-42 387 236)"/><ellipse cx="439" cy="259" rx="20" ry="6" fill="#000" transform="rotate(90 439 259)"/><ellipse cx="403" cy="206" rx="21" ry="6" fill="#000" transform="rotate(-42 403 206)"/><ellipse cx="456" cy="229" rx="21" ry="6" fill="#000" transform="rotate(90 456 229)"/><ellipse cx="421" cy="176" rx="18" ry="6" fill="#000" transform="rotate(-42 421 176)"/><ellipse cx="473" cy="199" rx="18" ry="6" fill="#000" transform="rotate(90 473 199)"/><path d="M390,253 L309,211 L305,221Z" fill="#000"/><path d="M424,268 L509,300 L504,310Z" fill="#000"/><path d="M407,219 L327,177 L322,187Z" fill="#000"/><path d="M441,234 L526,266 L522,276Z" fill="#000"/><path d="M426,186 L345,144 L341,154Z" fill="#000"/><path d="M460,201 L545,233 L541,243Z" fill="#000"/></mask><g mask="url(#m4)"><path d="M390,296 C317,244 369,133 463,132 C525,203 478,316 390,296Z" fill="url(#lf1)"/><path d="M390,296 Q428,220 472,147" fill="none" stroke="#08120e" stroke-width="2.0" opacity=".42" stroke-linecap="round"/><path d="M404,267 L362,207" stroke="#08120e" stroke-width="1.4" opacity="0.32" fill="none" stroke-linecap="round"/><path d="M404,267 L476,258" stroke="#08120e" stroke-width="1.4" opacity="0.32" fill="none" stroke-linecap="round"/><path d="M418,240 L369,170" stroke="#08120e" stroke-width="1.4" opacity="0.32" fill="none" stroke-linecap="round"/><path d="M418,240 L502,229" stroke="#08120e" stroke-width="1.4" opacity="0.32" fill="none" stroke-linecap="round"/><path d="M432,213 L384,145" stroke="#08120e" stroke-width="1.4" opacity="0.32" fill="none" stroke-linecap="round"/><path d="M432,213 L514,203" stroke="#08120e" stroke-width="1.4" opacity="0.32" fill="none" stroke-linecap="round"/><path d="M448,186 L407,128" stroke="#08120e" stroke-width="1.4" opacity="0.32" fill="none" stroke-linecap="round"/><path d="M448,186 L518,177" stroke="#08120e" stroke-width="1.4" opacity="0.32" fill="none" stroke-linecap="round"/><path d="M464,160 L430,112" stroke="#08120e" stroke-width="1.4" opacity="0.32" fill="none" stroke-linecap="round"/><path d="M464,160 L522,153" stroke="#08120e" stroke-width="1.4" opacity="0.32" fill="none" stroke-linecap="round"/></g><path d="M320,438 Q320,384 320,330" fill="none" stroke="url(#stem)" stroke-width="7" stroke-linecap="round"/><mask id="m5"><rect x="0" y="0" width="900" height="1100" fill="#fff"/><ellipse cx="291" cy="287" rx="20" ry="6" fill="#000" transform="rotate(-66 291 287)"/><ellipse cx="349" cy="287" rx="20" ry="6" fill="#000" transform="rotate(66 349 287)"/><ellipse cx="291" cy="260" rx="21" ry="6" fill="#000" transform="rotate(-66 291 260)"/><ellipse cx="349" cy="260" rx="21" ry="6" fill="#000" transform="rotate(66 349 260)"/><ellipse cx="291" cy="233" rx="18" ry="6" fill="#000" transform="rotate(-66 291 233)"/><ellipse cx="349" cy="233" rx="18" ry="6" fill="#000" transform="rotate(66 349 233)"/><path d="M302,299 L211,294 L211,303Z" fill="#000"/><path d="M338,299 L429,294 L429,303Z" fill="#000"/><path d="M302,269 L211,265 L211,273Z" fill="#000"/><path d="M338,269 L429,265 L429,273Z" fill="#000"/><path d="M302,239 L211,235 L211,243Z" fill="#000"/><path d="M338,239 L429,235 L429,243Z" fill="#000"/></mask><g mask="url(#m5)"><path d="M320,330 C232,316 234,219 320,188 C406,219 408,316 320,330Z" fill="url(#lf1)"/><path d="M320,330 Q320,263 320,197" fill="none" stroke="#08120e" stroke-width="1.6" opacity=".42" stroke-linecap="round"/><path d="M320,304 L258,267" stroke="#08120e" stroke-width="1.4" opacity="0.32" fill="none" stroke-linecap="round"/><path d="M320,304 L382,267" stroke="#08120e" stroke-width="1.4" opacity="0.32" fill="none" stroke-linecap="round"/><path d="M320,280 L247,237" stroke="#08120e" stroke-width="1.4" opacity="0.32" fill="none" stroke-linecap="round"/><path d="M320,280 L393,237" stroke="#08120e" stroke-width="1.4" opacity="0.32" fill="none" stroke-linecap="round"/><path d="M320,256 L249,214" stroke="#08120e" stroke-width="1.4" opacity="0.32" fill="none" stroke-linecap="round"/><path d="M320,256 L391,214" stroke="#08120e" stroke-width="1.4" opacity="0.32" fill="none" stroke-linecap="round"/><path d="M320,232 L259,196" stroke="#08120e" stroke-width="1.4" opacity="0.32" fill="none" stroke-linecap="round"/><path d="M320,232 L381,196" stroke="#08120e" stroke-width="1.4" opacity="0.32" fill="none" stroke-linecap="round"/><path d="M320,208 L270,178" stroke="#08120e" stroke-width="1.4" opacity="0.32" fill="none" stroke-linecap="round"/><path d="M320,208 L370,178" stroke="#08120e" stroke-width="1.4" opacity="0.32" fill="none" stroke-linecap="round"/></g></svg>